<?xml version="1.0" encoding="utf-8"?>
<!-- Generator: Adobe Illustrator 21.1.0, SVG Export Plug-In . SVG Version: 6.00 Build 0)  -->
<svg version="1.1" id="Layer_1" xmlns="http://www.w3.org/2000/svg" xmlns:xlink="http://www.w3.org/1999/xlink" x="0px" y="0px"
	 viewBox="0 0 34.8 47.9" style="enable-background:new 0 0 34.8 47.9;" xml:space="preserve">
<style type="text/css">
	.st0{fill:#F13AB8;}
</style>
<path class="st0" d="M32.7,0H2.1C0.9,0,0,0.9,0,2.1V32v0.7c0,0.9,0.6,1.7,1.4,2c0.2,0.1,9.7,1.2,9.7,1.2l6,12.1L23,35.9l9.6-1.1
	c0.4,0,0.7-0.1,1-0.3c0.6-0.4,1-1,1-1.8v-0.2V2.1C34.8,0.9,33.8,0,32.7,0z M17.4,30c-7,0-12.7-5.7-12.7-12.7S10.4,4.7,17.4,4.7
	s12.7,5.7,12.7,12.7S24.4,30,17.4,30z"/>
</svg>
