<?xml version="1.0" encoding="utf-8"?>
<!-- Generator: Adobe Illustrator 21.1.0, SVG Export Plug-In . SVG Version: 6.00 Build 0)  -->
<svg version="1.1" id="Layer_1" xmlns="http://www.w3.org/2000/svg" xmlns:xlink="http://www.w3.org/1999/xlink" x="0px" y="0px"
	 viewBox="0 0 551 63" style="enable-background:new 0 0 551 63;" xml:space="preserve">
<style type="text/css">
	.st0{fill:none;}
	.st1{fill:#939393;}
</style>
<g>
	<path class="st0" d="M337.1,48.5c-1.1-0.2-2.2-0.3-3.3-0.5c-0.2,0-0.4-0.1-0.6-0.1c-0.2,0.7-0.4,1.4-0.8,2.1
		c0.5,0.1,1.1,0.2,1.6,0.2c1.1,0.2,2.2,0.3,3.3,0.5c2.3,0.4,4.7,0.6,7.1,0.6v-2.2C342,49.1,339.5,48.8,337.1,48.5z"/>
	<path class="st0" d="M392.4,50.7c0.8,0.1,1.7,0.2,2.5,0.3c-0.3-0.4-0.5-0.8-0.7-1.2s-0.4-0.8-0.6-1.2c-0.5-0.1-0.9-0.1-1.4-0.2
		c-1.1-0.2-2.2-0.3-3.3-0.5c-2.5-0.4-5-0.8-7.4-1.1V49c2.6,0.3,5.1,0.7,7.6,1.1C390.1,50.4,391.2,50.6,392.4,50.7z"/>
	<path class="st0" d="M357.9,47.8c-0.5,0.1-1,0-1.3-0.2l0,0c-1.6,0.4-3.2,0.7-4.8,1v2.2c1.7-0.3,3.5-0.7,5.2-1.2
		c0.3-0.1,0.7,0,0.8,0.2c0,0.1,0.1,0.1,0.1,0.2c5.2-1.5,10.7-1.8,16.2-1.5v-2.2C368.5,45.9,363,46.2,357.9,47.8z"/>
	<path class="st0" d="M464.7,44.7c-3.8,1-7.7,1.5-11.7,1.5c-1.2,0-2.4-0.1-3.6-0.1v1.8c5.3,0.4,10.6-0.1,15.6-1.6
		c0.5-0.1,1,0,1.2,0.2c2.2-0.6,4.5-1,6.8-1.3c-0.2-0.6-0.3-1.1-0.4-1.7c-2.2,0.3-4.3,0.7-6.4,1.4C465.7,45,465.1,45,464.7,44.7z"/>
	<path class="st0" d="M333.7,50.9c-0.5-0.1-1.1-0.2-1.6-0.2c-0.3,0.7-0.7,1.3-1.2,1.9c-0.1,0.2-0.3,0.4-0.4,0.5
		c1.1,0.2,2.2,0.3,3.3,0.5c1.1,0.2,2.2,0.3,3.3,0.5c2.4,0.4,4.9,0.6,7.4,0.6V52c-2.5,0-5-0.2-7.4-0.6
		C335.9,51.2,334.8,51.1,333.7,50.9z"/>
	<path class="st0" d="M429,49.3c-0.1,0.2-0.2,0.4-0.3,0.6c-0.4,0.7-0.8,1.4-1.3,2c4.7,0.3,9.5,1,14.2,1.8c0.2,0,0.3,0,0.5,0.1V51
		c-0.2,0-0.3-0.1-0.5-0.1C437.5,50.3,433.2,49.6,429,49.3z"/>
	<path class="st0" d="M441.9,45c-3.7-0.6-7.4-1.1-11-1.5c-0.1,0.6-0.2,1.2-0.4,1.8c3.9,0.4,7.8,1,11.7,1.5V45
		C442.1,45,442,45,441.9,45z"/>
	<path class="st0" d="M395.4,51.8c-1.1-0.1-2.2-0.2-3.4-0.4c-1.1-0.2-2.2-0.3-3.3-0.5c-2.4-0.4-4.9-0.7-7.3-1.1v2.7
		c2.5,0.3,4.9,0.7,7.3,1.1c1.1,0.2,2.2,0.3,3.3,0.5c1.9,0.3,3.9,0.5,5.9,0.6C397,53.8,396.1,52.9,395.4,51.8z"/>
	<path class="st0" d="M294.9,51.9c-1.1,0.1-2.2,0.1-3.3,0.1c-2.5,0-5.1-0.2-7.6-0.6c-1.1-0.2-2.2-0.3-3.3-0.5
		c-8.7-1.3-17.5-2.6-25.7-1.4c0.1,0.2,0.2,0.4,0.4,0.6c0.7,0.9,1.6,1.5,2.5,1.8c7.5-0.6,15.2,0.6,22.8,1.8c1.1,0.2,2.2,0.3,3.3,0.5
		c4.3,0.7,8.8,0.8,13.2,0.2C296.4,53.6,295.6,52.8,294.9,51.9z"/>
	<path class="st0" d="M232.8,51.9v2.6c5.3,0.4,10.7-0.1,15.9-1.5c-0.1-0.2-0.3-0.4-0.4-0.6c-0.3-0.5-0.5-1.1-0.7-1.6
		c-3.5,0.9-7.2,1.3-10.9,1.3C235.3,52.1,234.1,52,232.8,51.9z"/>
	<path class="st0" d="M203.2,49.2v2.6c7.4-0.5,15.1,0.5,22.2,1.7v-2.7C218.2,49.7,210.5,48.6,203.2,49.2z"/>
	<path class="st0" d="M324,49.6c-7-0.8-13.8-0.9-20.3,0.9c0.4,0.3,0.9,0.5,1.4,0.8c0.8,0.4,1.6,0.7,2.4,1c4.2-0.7,8.5-0.6,12.9-0.3
		c0.8-0.3,1.6-0.7,2.3-1.2C323.1,50.3,323.6,50,324,49.6z"/>
	<path class="st0" d="M203.2,43.3v1.8c7.4-0.6,15.1,0.5,22.2,1.6v-1.8C218.2,43.7,210.5,42.7,203.2,43.3z"/>
	<path class="st0" d="M194.5,50.8c-0.1,0-0.3,0-0.4,0c-3,0.7-6.1,1.1-9.2,1.2v2.6c3.7-0.1,7.4-0.7,10.9-1.7v-2.5
		C195.4,50.5,194.9,50.7,194.5,50.8z"/>
	<path class="st0" d="M308.1,52.4c1.7,0.5,3.5,0.7,5.4,0.7c2.3,0,4.4-0.3,6.2-1C315.8,51.9,311.9,51.9,308.1,52.4z"/>
	<path class="st0" d="M141.9,47.8c-0.5,0.1-1,0-1.3-0.2l0,0c-3.8,1-7.8,1.5-11.8,1.5c-0.2,0-0.4,0-0.7,0c0.2,0.3,0.4,0.7,0.7,1
		c0.4,0.5,0.9,0.9,1.3,1.2c3.7-0.1,7.3-0.7,10.8-1.7c0.3-0.1,0.7,0,0.8,0.2c0.1,0.1,0.1,0.1,0.1,0.2c1.8-0.5,3.6-0.9,5.4-1.1
		c-0.3-0.7-0.6-1.3-0.8-2C144.8,47,143.3,47.4,141.9,47.8z"/>
	<path class="st0" d="M464.8,41.8c-3.7,0.9-7.7,1.4-11.6,1.4c-1.3,0-2.5-0.1-3.8-0.2v1.4c5.3,0.4,10.6,0,15.6-1.5
		c0.5-0.2,1.1-0.1,1.5,0.2c1.9-0.5,3.9-0.9,5.9-1.1c0-0.4-0.1-0.9-0.1-1.3c-1.9,0.3-3.9,0.7-5.7,1.3C466,42.1,465.3,42,464.8,41.8z"
		/>
	<path class="st0" d="M519.2,44.9c-0.2,0.1-0.4,0.1-0.6,0.1c-3.5,0.8-7,1.2-10.6,1.2c-2.6,0-5.2-0.2-7.7-0.6
		c-1.1-0.2-2.2-0.3-3.3-0.5c-6-0.9-12-1.8-17.7-1.9c0.1,0.6,0.3,1.3,0.6,1.9c5.8,0.1,11.7,1,17.5,1.9c1.1,0.2,2.2,0.3,3.3,0.5
		c6.5,1,13.1,0.7,19.3-1.1c0.1,0,0.1,0,0.2,0c6.7-1.7,13.7-1.4,20.7-0.6c-0.4-0.5-0.8-0.9-1.4-1.3c-0.5-0.3-1-0.6-1.6-0.8
		C531.4,42.9,525.1,43,519.2,44.9z"/>
	<path class="st0" d="M87.9,47.8c-0.3,0.1-0.7,0.1-1,0c-1.4,0.3-2.8,0.6-4.3,0.8c0.3,0.2,0.6,0.4,0.8,0.7c0.4,0.4,0.8,0.8,1.3,1.1
		c1.1-0.2,2.2-0.5,3.3-0.8c0.3-0.1,0.5,0,0.7,0.1c4.3-1.2,8.8-1.5,13.3-1.3c0-0.1,0-0.2,0-0.4c0-0.7-0.2-1.3-0.5-1.9
		C96.8,46,92.3,46.4,87.9,47.8z"/>
	<path class="st0" d="M392.2,45.5c-1.1-0.2-2.2-0.3-3.3-0.5c-2.5-0.4-5.1-0.8-7.6-1.1v1.8c2.6,0.3,5.3,0.7,7.9,1.1
		c1.1,0.2,2.2,0.3,3.3,0.5c0.1,0,0.2,0,0.4,0c-0.2-0.6-0.4-1.3-0.6-1.9C392.3,45.5,392.3,45.5,392.2,45.5z"/>
	<path class="st0" d="M119,45.1c-3.6-0.6-7.1-1.2-10.7-1.6c0.3,0.6,0.5,1.2,0.6,1.9c3.6,0.4,7.1,1,10.5,1.5c0.3,0,0.5,0.1,0.8,0.1
		c-0.1-0.6-0.1-1.2-0.1-1.8C119.7,45.3,119.3,45.2,119,45.1z"/>
	<path class="st0" d="M519.6,41.9c-0.2,0.1-0.5,0.1-0.7,0.1c-3.5,0.8-7.1,1.2-10.7,1.2c-2.6,0-5.3-0.2-7.8-0.6
		c-1-0.2-2.1-0.3-3.2-0.5h-10.3c3.6,0.4,7.1,0.9,10.7,1.4c1.1,0.2,2.2,0.3,3.3,0.5c6.4,1,13,0.7,19.1-1.1c0.1,0,0.1,0,0.2,0
		c3.5-0.9,7.2-1.3,10.8-1.3c-1.6-0.3-3-0.7-4.3-1.2C524.3,40.7,521.9,41.1,519.6,41.9z"/>
	<path class="st0" d="M246.6,45.2c-3.1,0.6-6.4,1-9.6,1c-1.4,0-2.8-0.1-4.2-0.2v1.8c4.7,0.4,9.4,0.1,13.9-0.9
		C246.6,46.3,246.6,45.8,246.6,45.2L246.6,45.2z"/>
	<path class="st0" d="M358.2,44.9c-0.5,0.2-1.2,0.1-1.6-0.2c-1.6,0.4-3.2,0.7-4.9,1v1.7c1.8-0.3,3.5-0.7,5.2-1.2
		c0.5-0.1,1,0,1.2,0.2c5.1-1.4,10.4-1.7,15.8-1.4v-1.8C368.6,42.9,363.3,43.2,358.2,44.9z"/>
	<path class="st0" d="M292.7,46.1c-0.2,0-0.5,0-0.7,0c-2.6,0-5.2-0.2-7.7-0.6c-1.1-0.2-2.2-0.3-3.3-0.5c-9.4-1.4-18.6-2.8-27.1-1.1
		v1.3c0,0.1,0,0.3,0,0.4c8.9-1.6,18.3-0.2,27.5,1.2c1.1,0.2,2.2,0.3,3.3,0.5c2.7,0.4,5.4,0.6,8.1,0.5c-0.1-0.3-0.2-0.6-0.2-0.9
		C292.5,46.7,292.6,46.4,292.7,46.1z"/>
	<path class="st0" d="M441.8,48c-3.9-0.6-7.8-1.2-11.6-1.5c-0.2,0.7-0.5,1.5-0.9,2.2c4.2,0.4,8.4,1,12.6,1.6c0.1,0,0.1,0,0.2,0V48
		C442.1,48,442,48,441.8,48z"/>
	<path class="st0" d="M78.1,49c-0.8,0-1.5,0.1-2.3,0.1c-2.6,0-5.1-0.2-7.7-0.6l-1.5-0.2c-0.3-0.1-0.7-0.1-1-0.2v2.2
		c0.4,0.1,0.8,0.1,1.3,0.2l1.5,0.2c2.8,0.5,5.6,0.6,8.4,0.6C76.9,50.4,77.3,49.6,78.1,49z"/>
	<path class="st0" d="M499.9,51.4c-1.1-0.2-2.1-0.3-3.2-0.5c-4.8-0.7-9.5-1.4-14.2-1.7c0.4,0.4,0.7,0.7,1.1,1c1,0.9,2.2,1.5,3.4,2
		c2.4,0.3,4.8,0.6,7.3,1c1-0.1,2-0.3,3.1-0.7C498.3,52.2,499.1,51.8,499.9,51.4z"/>
	<path class="st0" d="M516.5,51.2c-2.9,0.6-5.9,0.9-8.9,0.9c-0.3,0-0.5,0-0.8,0c0.1,0.3,0.2,0.6,0.2,0.9c0,0.7-0.2,1.2-0.7,1.7
		c3.6,0.1,7.2-0.3,10.7-1c-0.4-0.5-0.6-1.1-0.6-1.8C516.4,51.6,516.5,51.4,516.5,51.2z"/>
	<path class="st0" d="M465.9,47.8c-0.5,0.1-1,0-1.3-0.2l0,0c-3.8,1-7.8,1.5-11.8,1.5c-1.1,0-2.3-0.1-3.4-0.1v2.2
		c5.2,0.4,10.5-0.1,15.5-1.6c0.3-0.1,0.7,0,0.8,0.2c0,0.1,0.1,0.1,0.1,0.2c2.7-0.8,5.6-1.3,8.4-1.5c-0.3-0.7-0.6-1.4-0.9-2.1
		C470.8,46.6,468.3,47.1,465.9,47.8z"/>
	<path class="st0" d="M518.9,47.8c-0.2,0-0.3,0.1-0.5,0.1c-3.4,0.8-7,1.2-10.6,1.2c-2.6,0-5.1-0.2-7.7-0.6c-1.1-0.2-2.2-0.3-3.3-0.5
		c-5.6-0.8-11.1-1.7-16.5-1.9c0.4,0.8,0.9,1.6,1.5,2.3c5.1,0.3,10.2,1,15.2,1.8c1.1,0.2,2.2,0.3,3.3,0.5c0.2,0,0.3,0,0.5,0.1
		c0.1-0.1,0.2-0.1,0.3-0.2c0.7-0.5,1.5-0.8,2.4-0.8s1.6,0.2,2.2,0.7c0.3,0.2,0.5,0.5,0.7,0.8c3.5,0.1,6.9-0.2,10.3-0.9
		c0.2-0.5,0.6-1,1.1-1.4c0.9-0.7,1.8-1,2.5-1c0.8,0,1.6,0.3,2.4,1c6.1-1.1,12.4-0.7,18.8,0c0.1-0.3,0.1-0.7,0.1-1.1
		c0-0.4-0.1-0.8-0.2-1.2C533.7,45.8,526,45.5,518.9,47.8z"/>
	<path class="st0" d="M527.7,52.1c1.7,0.6,3.5,1,5.4,1s3.6-0.2,4.9-0.7C534.5,52,531.1,51.9,527.7,52.1z"/>
	<path class="st0" d="M118.9,48.1c-3.3-0.5-6.5-1.1-9.8-1.5c0,0.3,0,0.7,0,1.1c0,0.4,0,0.8-0.1,1.2c3.4,0.4,6.8,0.9,10.1,1.5
		c0.6,0.1,1.2,0.2,1.9,0.3c-0.3-0.7-0.5-1.5-0.6-2.3C119.8,48.3,119.3,48.2,118.9,48.1z"/>
	<path class="st0" d="M523.5,49.6c0.9,0.8,2,1.6,3.5,2.2c3.8-0.3,7.7-0.1,11.5,0.3c0.3-0.1,0.6-0.3,0.9-0.4c0.9-0.5,1.5-1.2,1.9-1.9
		C535.3,49,529.2,48.7,523.5,49.6z"/>
	<path class="st0" d="M176.5,54.1c0.4,0.1,0.7,0.1,1.1,0.2V53C177.2,53.4,176.8,53.8,176.5,54.1z"/>
	<path class="st0" d="M281.6,43.5c1.1,0.2,2.2,0.3,3.3,0.5c3,0.5,6.1,0.6,9.2,0.5c0.4-0.2,0.8-0.4,1.4-0.5c0.1,0,0.4-0.1,0.7-0.1
		c0.5,0,1,0.1,1.4,0.3c2.2-0.3,4.3-0.7,6.4-1.3c0.1,0,0.1,0,0.2,0c7.1-1.8,14.6-1.4,22-0.5c-0.1-0.5-0.2-1-0.3-1.4
		c-7.8-1-15.3-1.3-22.3,1c-0.2,0.1-0.5,0.1-0.7,0.1c-3.5,0.8-7.1,1.2-10.7,1.2c-2.6,0-5.3-0.2-7.8-0.6c-1.1-0.2-2.2-0.3-3.3-0.5
		c-9.5-1.4-18.7-2.8-27.2-1v1.3C262.8,40.7,272.3,42.1,281.6,43.5z"/>
	<path class="st0" d="M357,42.9c0.5-0.2,1.1-0.1,1.5,0.2c5-1.4,10.3-1.6,15.5-1.4v-1.4c-5.3-0.3-10.5,0-15.4,1.6
		c-0.6,0.2-1.3,0.1-1.8-0.1c-1.6,0.4-3.3,0.7-5,1v1.3C353.6,43.8,355.3,43.4,357,42.9z"/>
	<path class="st0" d="M334.6,43.5c1.1,0.2,2.2,0.3,3.3,0.5c2.2,0.3,4.3,0.5,6.5,0.5v-1.4c-2.4,0-4.8-0.3-7.1-0.6
		c-1.1-0.2-2.2-0.3-3.3-0.5c-0.1,0-0.3,0-0.4-0.1c0,0.5,0.1,0.9,0.1,1.4C334,43.4,334.3,43.5,334.6,43.5z"/>
	<path class="st0" d="M246.6,43.5v-1.3c-3.1,0.6-6.2,0.9-9.4,0.9c-1.5,0-2.9-0.1-4.4-0.2v1.4C237.4,44.9,242.1,44.6,246.6,43.5z"/>
	<path class="st0" d="M465.1,39.6c0.6-0.2,1.2-0.1,1.7,0.1c1.8-0.5,3.7-0.8,5.6-1.1c0-0.3,0-0.6,0.1-0.9c-1.8,0.3-3.7,0.7-5.4,1.2
		c-0.7,0.2-1.4,0.2-2,0c-3.7,0.9-7.7,1.4-11.6,1.4c-1.3,0-2.6-0.1-4-0.2v1C454.7,41.5,460,41.1,465.1,39.6z"/>
	<path class="st0" d="M225.4,43.3v-1.4c-7.2-1.2-15-2.2-22.2-1.5v1.4C210.6,41.2,218.2,42.2,225.4,43.3z"/>
	<path class="st0" d="M389.6,43.5c0.8,0.1,1.6,0.2,2.4,0.4c-0.1-0.5-0.2-0.9-0.2-1.4c-0.9-0.1-1.8-0.3-2.7-0.4
		c-2.6-0.4-5.1-0.8-7.7-1.1v1.4C384.1,42.7,386.9,43.1,389.6,43.5z"/>
	<path class="st0" d="M508.7,41.2c3.9,0,7.7-0.6,11.4-1.7c0.1,0,0.1,0,0.2,0c1-0.3,2.1-0.5,3.2-0.7c-0.4-0.2-0.7-0.4-1-0.6
		c-0.8,0.2-1.6,0.4-2.4,0.7c-0.3,0.1-0.5,0.1-0.8,0.1c-3.2,0.7-6.4,1.1-9.7,1.2C509.3,40.6,509,40.9,508.7,41.2L508.7,41.2z"/>
	<path class="st0" d="M58.2,42.4V41c-4.3-0.6-8.7-0.9-13-0.8c-0.1,0.5-0.3,0.9-0.5,1.4C49.2,41.5,53.8,41.8,58.2,42.4z"/>
	<path class="st0" d="M58.2,45.8V44c-4.7-0.6-9.5-1-14.1-0.8c-0.3,0.6-0.6,1.2-0.9,1.9C48.2,44.8,53.3,45.2,58.2,45.8z"/>
	<path class="st0" d="M141,42.9c0.5-0.2,1.1-0.1,1.5,0.2c0.9-0.3,1.9-0.5,2.9-0.7c0-0.4-0.1-0.8-0.1-1.2c-0.9,0.2-1.8,0.4-2.7,0.7
		c-0.6,0.2-1.3,0.1-1.8-0.1c-3.7,0.9-7.7,1.4-11.6,1.4c-0.7,0-1.3,0-2,0v1.4C131.9,44.8,136.6,44.2,141,42.9z"/>
	<path class="st0" d="M42.6,46.2c-0.5,0.8-1,1.6-1.5,2.3c5.6-0.5,11.5-0.1,17.1,0.6V47C53.1,46.3,47.7,45.8,42.6,46.2z"/>
	<path class="st0" d="M67.4,43.8l1.5,0.2c6.4,1.1,12.9,0.7,19.1-1.1c0.4-0.1,0.8-0.1,1.1,0c1.4-0.4,2.9-0.6,4.3-0.8
		c-0.4-0.1-0.9-0.2-1.3-0.3c-0.6-0.1-1.3-0.3-1.9-0.4c-0.6,0.1-1.1,0.3-1.7,0.5c-0.4,0.1-0.9,0.1-1.4,0c-3.6,0.8-7.3,1.3-11,1.3
		c-2.6,0-5.3-0.2-7.8-0.6l-1.5-0.2c-0.4-0.1-0.8-0.1-1.3-0.2v1.4C66.2,43.6,66.8,43.7,67.4,43.8z"/>
	<path class="st0" d="M442.2,40.1v-1c0,0,0,0-0.1,0c-3.7-0.6-7.4-1.1-11-1.5c0,0.3,0,0.7,0.1,1C434.9,39,438.6,39.5,442.2,40.1z"/>
	<path class="st0" d="M107.2,41.9c4.2,0.4,8.4,1.1,12.4,1.7c0.1,0,0.2,0,0.4,0.1v-1.4c-0.3-0.1-0.6-0.1-1-0.2
		c-4.4-0.7-8.9-1.4-13.3-1.8l0,0C106.3,40.9,106.8,41.4,107.2,41.9z"/>
	<path class="st0" d="M236.8,49.1c-1.3,0-2.7-0.1-4-0.2v2.2c4.9,0.4,9.8,0,14.5-1.1c-0.2-0.6-0.4-1.3-0.5-2
		C243.6,48.7,240.2,49.1,236.8,49.1z"/>
	<path class="st0" d="M291.8,49.1c-2.6,0-5.1-0.2-7.7-0.6c-1.1-0.2-2.2-0.3-3.3-0.5c-9.2-1.4-18.4-2.8-26.9-1.2
		c0.1,0.7,0.4,1.4,0.7,2c8.6-1.3,17.6,0,26.4,1.4c1.1,0.2,2.2,0.3,3.3,0.5c3.3,0.5,6.7,0.7,10.1,0.5c-0.5-0.7-0.9-1.4-1.2-2.2
		C292.7,49.1,292.3,49.1,291.8,49.1z"/>
	<path class="st0" d="M101.8,49c-4.9-0.1-9.7,0.3-14.3,1.8c-0.3,0.1-0.6,0-0.8-0.1c-0.4,0.1-0.8,0.2-1.2,0.3
		c0.6,0.3,1.2,0.7,1.9,0.9c0.8,0.3,1.7,0.6,2.5,0.8c3.2-0.7,6.4-1,9.7-1l0,0C100.8,51,101.5,50.1,101.8,49z"/>
	<path class="st0" d="M67.7,40.4l1.5,0.2c5.6,0.9,11.4,0.7,16.9-0.6c-0.4-0.2-0.9-0.4-1.3-0.6c-2.8,0.5-5.6,0.7-8.5,0.7
		c-2.7,0-5.3-0.2-7.9-0.6L67,39.4c-0.5-0.1-0.9-0.1-1.4-0.2v1C66.3,40.2,67,40.3,67.7,40.4z"/>
	<path class="st0" d="M141.1,39.6c0.6-0.2,1.2-0.1,1.7,0.1c0.8-0.2,1.6-0.4,2.5-0.6c0-0.3,0-0.5,0-0.8c-0.8,0.2-1.5,0.4-2.3,0.6
		c-0.7,0.2-1.4,0.2-2,0c-3.7,0.9-7.7,1.4-11.6,1.4c-0.7,0-1.4,0-2.1,0v1C131.9,41.4,136.6,40.9,141.1,39.6z"/>
	<path class="st0" d="M119.9,40.3C120,40.3,120,40.3,119.9,40.3l0.1-0.9c-0.3,0-0.6-0.1-0.8-0.1c-6.5-1.1-13.2-2.2-19.7-2
		c1,0.3,1.9,0.7,2.7,1C108.2,38.4,114.3,39.4,119.9,40.3z"/>
	<path class="st0" d="M442.2,43.5v-1.4c-0.1,0-0.1,0-0.2,0c-3.7-0.6-7.3-1.1-10.8-1.5c0,0.5-0.1,0.9-0.1,1.4
		C434.8,42.4,438.6,42.9,442.2,43.5z"/>
	<path class="st0" d="M58.2,39v-1c-4.1-0.5-8.3-0.9-12.3-0.8c-0.1,0.3-0.1,0.7-0.2,1C49.9,38.2,54.1,38.5,58.2,39z"/>
	<path class="st0" d="M118.7,51.1c-3.3-0.5-6.5-1.1-9.8-1.5c-0.2,0.9-0.4,1.8-0.8,2.6c3.6,0.4,7.1,1,10.7,1.5
		c0.8,0.1,1.5,0.3,2.3,0.4c0.6,0.1,1.3,0.2,1.9,0.3c-0.5-0.6-0.9-1.3-1.3-2c-0.2-0.3-0.3-0.6-0.4-0.9c-0.1,0-0.2,0-0.2,0
		C120.3,51.3,119.5,51.2,118.7,51.1z"/>
	<path class="st0" d="M76.7,52c-0.4,0-0.7,0-1.1,0c-2.5,0-5.1-0.2-7.6-0.6l-1.5-0.2c-0.3-0.1-0.6-0.1-0.9-0.2v2.7
		c0.3,0.1,0.6,0.1,1,0.2l1.5,0.2c3.4,0.6,6.8,0.7,10.2,0.5c-0.2-0.2-0.4-0.4-0.6-0.6C77,53.5,76.8,52.8,76.7,52z"/>
	<path class="st0" d="M40.5,49.3c-0.9,1.1-1.8,2.1-2.8,3c6.7-1.2,13.7-0.7,20.6,0.2v-2.7C52.3,49.1,46.3,48.7,40.5,49.3z"/>
	<path class="st0" d="M203.2,37.5v1c7.4-0.6,15.1,0.4,22.2,1.5v-1C218.2,37.8,210.4,36.8,203.2,37.5z"/>
	<path class="st0" d="M357.1,39.6c0.6-0.2,1.2-0.1,1.7,0.1c5-1.3,10.1-1.6,15.3-1.3V38c0-0.2,0-0.4,0-0.6c-5.2-0.3-10.3,0.1-15,1.6
		c-0.7,0.2-1.4,0.2-2,0c-1.7,0.4-3.4,0.7-5.1,1v0.9C353.6,40.5,355.3,40.1,357.1,39.6z"/>
	<path class="st0" d="M334.9,40.2c1.1,0.2,2.2,0.3,3.3,0.5c2.1,0.3,4.2,0.5,6.2,0.5v-1c-2.4,0-4.7-0.2-7-0.6
		c-1.1-0.2-2.2-0.3-3.3-0.5c-0.4-0.1-0.7-0.1-1.1-0.2c0.1,0.3,0.2,0.7,0.2,1C333.8,40,334.4,40.1,334.9,40.2z"/>
	<path class="st0" d="M281.9,40.2c1.1,0.2,2.2,0.3,3.3,0.5c6.3,1,12.8,0.7,18.9-1.1c0.1,0,0.1,0,0.2,0c6.7-1.7,13.7-1.5,20.6-0.7
		c-0.2-0.4-0.5-0.7-0.8-1.1c-7-0.8-13.8-0.8-20.1,1.2c-0.3,0.1-0.5,0.1-0.8,0.1c-3.5,0.8-7.1,1.2-10.8,1.2c-2.7,0-5.3-0.2-7.9-0.6
		c-1.1-0.2-2.2-0.3-3.3-0.5c-9.7-1.5-18.9-2.8-27.4-0.9V39C262.9,37.3,272.5,38.8,281.9,40.2z"/>
	<path class="st0" d="M195.8,39.6v-0.7c-0.2,0.1-0.5,0.1-0.7,0.1c-3.3,0.8-6.8,1.2-10.3,1.2v1C188.6,41.2,192.3,40.7,195.8,39.6z"/>
	<path class="st0" d="M359,36.3c4.8-1.3,9.8-1.5,14.8-1.3c-0.4-2.5-1.4-4.4-2.9-5.9c-2.1-2-4.9-3-8.3-3c-2,0-3.9,0.4-5.5,1.2
		c-1.7,0.8-3,1.9-3.9,3.3s-1.4,3-1.4,4.7v2.1c1.8-0.3,3.6-0.7,5.3-1.2C357.7,36.1,358.5,36.1,359,36.3z"/>
	<path class="st0" d="M225.4,36.5c-0.2-3.2-1.3-5.7-3.1-7.4c-2.1-2-4.9-3-8.3-3c-2,0-3.9,0.4-5.5,1.2c-1.7,0.8-3,1.9-3.9,3.3
		c-0.9,1.3-1.3,2.8-1.4,4.4C210.6,34.4,218.2,35.4,225.4,36.5z"/>
	<path class="st0" d="M389.9,40.2c0.6,0.1,1.2,0.2,1.8,0.3c0-0.3,0-0.6,0-0.9v-0.1c-0.8-0.1-1.6-0.2-2.4-0.4
		c-2.6-0.4-5.2-0.8-7.8-1.1v1C384.2,39.3,387.1,39.8,389.9,40.2z"/>
	<path class="st0" d="M246.6,40.2v-0.8c-3,0.6-6.1,0.9-9.2,0.9c-1.5,0-3.1-0.1-4.6-0.2v1C237.4,41.5,242.1,41.2,246.6,40.2z"/>
	<path class="st0" d="M195.8,43v-1.1c-0.1,0-0.2,0-0.2,0.1c-0.2,0.1-0.5,0.1-0.7,0.1c-3.2,0.7-6.6,1.1-10,1.2v1.4
		C188.6,44.5,192.3,44,195.8,43z"/>
	<path class="st0" d="M142.2,44.9c-0.5,0.2-1.2,0.1-1.6-0.2c-3.8,1-7.7,1.5-11.7,1.5c-0.6,0-1.1,0-1.7,0c0.1,0.6,0.2,1.3,0.4,1.8
		c4.5,0.1,9-0.4,13.3-1.7c0.5-0.1,1,0,1.2,0.2c1.3-0.4,2.5-0.6,3.8-0.9c-0.1-0.5-0.3-1.1-0.4-1.7C144.5,44.2,143.3,44.5,142.2,44.9z
		"/>
	<path class="st0" d="M302.9,47.8c-0.2,0-0.3,0.1-0.5,0.1c-0.4,0.1-0.9,0.2-1.3,0.3c0.5,0.6,1.1,1.2,1.8,1.7
		c0.4-0.1,0.7-0.2,1.1-0.3c0.1,0,0.1,0,0.2,0c6.6-1.6,13.5-1.4,20.5-0.6c0.5-0.6,1-1.3,1.3-2.1C317.9,45.8,310.1,45.5,302.9,47.8z"
		/>
	<path class="st0" d="M93.3,53c2.4,0,4.3-0.4,5.8-1.1c-2.8,0-5.6,0.3-8.3,0.9C91.6,53,92.4,53,93.3,53z"/>
	<path class="st0" d="M195.8,44.7c-0.2,0.1-0.4,0.1-0.6,0.2c-0.2,0.1-0.4,0.1-0.6,0.1c-3.2,0.7-6.5,1.1-9.7,1.2V48
		c3.7-0.1,7.4-0.6,10.9-1.6L195.8,44.7L195.8,44.7z"/>
	<path class="st0" d="M97.5,43.2c-3.2,0.2-6.3,0.7-9.3,1.7c-0.4,0.1-0.8,0.1-1.2,0c-3.6,0.9-7.3,1.3-11,1.3c-2.6,0-5.2-0.2-7.7-0.6
		l-1.5-0.2c-0.4-0.1-0.8-0.1-1.2-0.2V47c0.5,0.1,1,0.2,1.6,0.2l1.5,0.2c6.4,1.1,13.1,0.7,19.3-1.1c0.3-0.1,0.6-0.1,0.9,0
		c3.8-1,7.7-1.4,11.7-1.3c-0.3-0.2-0.5-0.5-0.9-0.7C99.1,43.9,98.4,43.5,97.5,43.2z"/>
	<path class="st0" d="M303.2,44.9c-0.2,0.1-0.4,0.1-0.6,0.1c-1.1,0.2-2.1,0.5-3.2,0.6c0.2,0.3,0.4,0.6,0.5,0.9
		c0.1,0.2,0.2,0.4,0.3,0.7c1.2-0.2,2.5-0.5,3.7-0.9c0.1,0,0.1,0,0.2,0c7.1-1.8,14.6-1.4,22-0.5c0.1-0.6,0.2-1.2,0.2-1.8
		C318.3,42.9,310.5,42.5,303.2,44.9z"/>
	<path class="st0" d="M492.8,53.3C492.8,53.3,492.9,53.3,492.8,53.3c-1.5-0.2-3-0.4-4.5-0.6C489.7,53.1,491.2,53.3,492.8,53.3z"/>
	<path class="st0" d="M194.9,47.8c-0.2,0-0.3,0.1-0.5,0.1c-3.1,0.7-6.3,1.1-9.5,1.2v2.2c3.7-0.1,7.4-0.6,10.9-1.7v-2.1
		C195.5,47.6,195.2,47.7,194.9,47.8z"/>
	<path class="st0" d="M203.2,46.2v2.2c7.4-0.6,15.1,0.5,22.2,1.6v-2.2C218.2,46.7,210.5,45.6,203.2,46.2z"/>
	<path class="st0" d="M337.2,45.5c-1.1-0.2-2.2-0.3-3.3-0.5c-0.1,0-0.2,0-0.3,0c0,0.6-0.1,1.2-0.2,1.8c0.3,0,0.6,0.1,0.9,0.1
		c1.1,0.2,2.2,0.3,3.3,0.5c2.3,0.4,4.5,0.5,6.8,0.6v-1.8C342,46.1,339.6,45.9,337.2,45.5z"/>
	<path class="st0" d="M411.2,44.9c-0.2,0.1-0.4,0.1-0.6,0.1c-3.4,0.8-6.9,1.2-10.5,1.2c0.1,0.1,0.1,0.2,0.2,0.4
		c0.3,0.5,0.6,1,0.9,1.4c3.7-0.1,7.3-0.6,10.8-1.7c0.1,0,0.1,0,0.2,0c3.6-0.9,7.3-1.3,11.1-1.3c0.2-0.6,0.4-1.2,0.5-1.8
		C419.5,43.1,415.3,43.6,411.2,44.9z"/>
	<path class="st0" d="M412.1,39.6c0.1,0,0.1,0,0.2,0c3.9-1,7.9-1.3,11.9-1.3c0-0.3-0.1-0.7-0.1-1c-4.2,0-8.2,0.4-12.1,1.7
		c-0.3,0.1-0.5,0.1-0.8,0.1c-3.5,0.8-7.1,1.2-10.8,1.2c-0.6,0-1.1,0-1.7,0c0,0.3,0,0.7,0.1,1C403.3,41.4,407.8,40.8,412.1,39.6z"/>
	<path class="st0" d="M413.9,52.8L413.9,52.8L413.9,52.8z"/>
	<path class="st0" d="M410.4,47.9c-2.7,0.6-5.5,1-8.3,1.1c0.7,0.8,1.5,1.4,2.4,2c2.5-0.3,5-0.8,7.4-1.5c0.1,0,0.1,0,0.2,0
		c3-0.8,6.1-1.1,9.2-1.2c0.4-0.6,0.9-1.2,1.2-1.8c0.1-0.1,0.1-0.3,0.2-0.4c-4.1,0-8.1,0.5-11.9,1.7
		C410.7,47.9,410.5,47.9,410.4,47.9z"/>
	<path class="st0" d="M412.1,36.2c0.1,0,0.3-0.1,0.4-0.1c3.6-0.9,7.3-1.2,11-1.3c-0.2-0.8-0.5-1.6-0.9-2.3c-1.1-2.1-2.6-3.7-4.5-4.8
		c-1.9-1.2-4.1-1.7-6.6-1.7s-4.6,0.6-6.6,1.7s-3.5,2.8-4.6,4.8c-0.9,1.6-1.4,3.4-1.6,5.3C403.3,38,407.8,37.5,412.1,36.2z"/>
	<path class="st0" d="M420.8,49.1c-3.5,0.2-7,0.7-10.3,1.7c-0.1,0-0.3,0-0.4,0c-1.5,0.3-3,0.6-4.5,0.8c1.8,0.9,3.7,1.4,5.9,1.4l0,0
		c0.1,0,0.3-0.1,0.4-0.1h0.1c1.5-0.4,3-0.6,4.5-0.8c0.5-0.2,1.1-0.5,1.6-0.8C419.1,50.7,420,49.9,420.8,49.1z"/>
	<path class="st0" d="M412,42.9c0.1,0,0.1,0,0.2,0c3.9-1,7.9-1.3,11.9-1.3c0.1-0.5,0.1-0.9,0.1-1.4c-4.3,0-8.5,0.4-12.6,1.7
		c-0.2,0.1-0.5,0.1-0.7,0.1c-3.5,0.8-7.1,1.2-10.7,1.2c-0.4,0-0.7,0-1.1,0c0.1,0.5,0.3,0.9,0.4,1.4C403.7,44.6,408,44.1,412,42.9z"
		/>
	<path class="st0" d="M499.5,28.6c-2-1.9-4.5-2.9-7.7-2.9c-3.5,0-6.3,1-8.5,2.9c-1.8,1.6-3.1,3.7-3.8,6.3c5.1,0,10.3,0.7,15.4,1.4
		h8.3C502.6,33.1,501.4,30.5,499.5,28.6z"/>
	<path class="st0" d="M176.6,45.6c-0.1,0-0.2,0-0.3,0c-1.1-0.2-2.2-0.3-3.3-0.5c-6.9-1-13.7-2.1-20.2-1.9c0.2,0.6,0.4,1.2,0.6,1.8
		c6.6-0.1,13.4,0.9,20,1.9c0.8,0.1,1.6,0.2,2.4,0.4c0.2-0.3,0.3-0.5,0.5-0.8C176.3,46.2,176.5,45.9,176.6,45.6z"/>
	<path class="st0" d="M174.2,36.8c1.1,0.2,2.2,0.3,3.3,0.5c0.1,0,0.1,0,0.2,0c-0.2-1.7-0.7-3.3-1.5-4.7c-1.1-2.1-2.6-3.7-4.6-4.9
		c-1.9-1.2-4.1-1.8-6.5-1.8s-4.6,0.6-6.5,1.8c-1.9,1.2-3.5,2.8-4.6,4.9c-0.4,0.7-0.7,1.5-0.9,2.3C160,34.7,167.2,35.8,174.2,36.8z"
		/>
	<path class="st0" d="M173.1,50.2c0.7-0.6,1.3-1.2,1.9-2c-0.7-0.1-1.4-0.2-2.1-0.3c-6.4-1-12.8-1.9-19-1.9c0.1,0.1,0.1,0.2,0.2,0.4
		c0.4,0.7,0.8,1.3,1.3,1.9C161.1,48.4,167.1,49.3,173.1,50.2C173,50.2,173,50.2,173.1,50.2z"/>
	<path class="st0" d="M173.9,40.2c1.1,0.2,2.2,0.3,3.3,0.5c0.2,0,0.4,0,0.6,0.1c0-0.3,0-0.6,0.1-1c-0.5-0.1-0.9-0.1-1.4-0.2
		c-1.1-0.2-2.2-0.3-3.3-0.5C166,38,159,37,152.5,37.3c0,0.3-0.1,0.7-0.1,1C159.5,38,166.7,39.1,173.9,40.2z"/>
	<path class="st0" d="M172.2,50.8c-5.5-0.8-11-1.6-16.3-1.8c0.8,0.9,1.7,1.6,2.7,2.2c0.4,0.3,0.9,0.5,1.3,0.7c2.5,0.2,5,0.5,7.5,0.9
		c1.5-0.3,2.9-0.8,4.2-1.5C171.8,51.1,172,51,172.2,50.8z"/>
	<path class="st0" d="M173.6,43.5c1.1,0.2,2.2,0.3,3.3,0.5c0.1,0,0.2,0,0.2,0c0.1-0.4,0.3-0.9,0.4-1.3c-0.4-0.1-0.8-0.1-1.2-0.2
		c-1.1-0.2-2.2-0.3-3.3-0.5c-7.1-1.1-14.1-2.1-20.7-1.8c0,0.5,0,0.9,0.1,1.4C159.4,41.4,166.6,42.5,173.6,43.5z"/>
	<path class="st0" d="M165.1,53c0.4,0,0.8,0,1.2-0.1c-1.8-0.2-3.6-0.5-5.4-0.6C162.2,52.8,163.6,53,165.1,53z"/>
	<path class="st0" d="M14.5,37.3c6.2,1,12.6,0.7,18.6-1.1c0.6-0.2,1.3-0.2,1.9,0c1.3-0.3,2.6-0.6,3.9-0.8c0.2-1.4,0.4-2.9,0.4-4.4
		c0-4.1-0.9-7.8-2.6-11.1c-1.8-3.3-4.2-5.8-7.3-7.6s-6.7-2.7-10.7-2.7H9.4v26.9c1,0.2,1.9,0.3,2.9,0.5C13,37.1,13.8,37.2,14.5,37.3z
		"/>
	<path class="st0" d="M14.2,40.7c6.3,1,12.8,0.7,18.8-1.1c0.6-0.2,1.2-0.1,1.7,0.1c1.1-0.3,2.2-0.5,3.3-0.7c0.1-0.3,0.2-0.6,0.3-0.9
		c-1.2,0.2-2.3,0.5-3.4,0.9c-0.7,0.2-1.4,0.2-2,0c-3.7,0.9-7.7,1.4-11.6,1.4c-2.7,0-5.3-0.2-7.9-0.6c-0.7-0.1-1.5-0.2-2.3-0.4
		c-0.6-0.1-1.2-0.2-1.8-0.3v1c0.9,0.1,1.7,0.3,2.6,0.4C12.7,40.4,13.5,40.6,14.2,40.7z"/>
	<path class="st0" d="M13.4,50.7c4.7,0.8,9.5,0.8,14.1,0.1c0.6-0.3,1.2-0.6,1.8-0.9c1.1-0.6,2.1-1.4,3.1-2.2
		c-3.8,1-7.7,1.5-11.6,1.5c-2.6,0-5.1-0.2-7.7-0.6c-0.8-0.1-1.5-0.2-2.3-0.4c-0.5-0.1-1-0.2-1.5-0.2v2.2c0.6,0.1,1.1,0.2,1.7,0.3
		C11.8,50.5,12.6,50.6,13.4,50.7z"/>
	<path class="st0" d="M13.7,47.4c6.4,1.1,13.1,0.7,19.3-1.1c0.3-0.1,0.6-0.1,0.8,0c0.5-0.5,0.9-1.1,1.4-1.7c-0.3,0.1-0.6,0.2-1,0.3
		c-0.5,0.2-1.2,0.1-1.6-0.2c-3.8,1-7.7,1.5-11.7,1.5c-2.6,0-5.2-0.2-7.7-0.6c-0.7-0.1-1.5-0.2-2.3-0.4c-0.5-0.1-1.1-0.2-1.6-0.3v1.8
		c0.7,0.1,1.3,0.2,2,0.3C12.1,47.1,12.9,47.3,13.7,47.4z"/>
	<path class="st0" d="M13.9,44c6.4,1,12.9,0.7,19.1-1.1c0.5-0.2,1.1-0.1,1.5,0.2c0.6-0.2,1.3-0.3,1.9-0.5c0.1-0.1,0.2-0.3,0.2-0.4
		c0.2-0.3,0.3-0.7,0.5-1c-0.9,0.2-1.7,0.4-2.6,0.7c-0.6,0.2-1.3,0.1-1.8-0.1c-3.7,0.9-7.7,1.4-11.6,1.4c-2.6,0-5.3-0.2-7.8-0.6
		c-0.7-0.1-1.5-0.2-2.3-0.4c-0.6-0.1-1.1-0.2-1.7-0.3v1.4c0.8,0.1,1.5,0.2,2.3,0.4C12.4,43.8,13.2,43.9,13.9,44z"/>
	<path class="st0" d="M13,51.4c-0.8-0.1-1.5-0.2-2.3-0.4c-0.5-0.1-0.9-0.2-1.4-0.2v1.8h9.3c2,0,3.9-0.2,5.7-0.7
		c-1.2,0.1-2.5,0.2-3.8,0.2C18.1,52.1,15.5,51.8,13,51.4z"/>
	<path class="st1" d="M9.4,44.9c-2.5-0.4-5-0.8-7.5-1.1v1.8c2.5,0.3,5,0.7,7.5,1.1V44.9z"/>
	<path class="st1" d="M43.3,45c0.3-0.6,0.6-1.2,0.9-1.9c-3.1,0.1-6.1,0.6-9,1.4c-0.4,0.6-0.9,1.1-1.4,1.7c0.2,0,0.3,0.1,0.4,0.2
		C37.2,45.7,40.2,45.2,43.3,45z"/>
	<path class="st1" d="M9.4,47.9c-2.5-0.4-5-0.8-7.5-1.1V49c2.5,0.3,5,0.7,7.5,1.1V47.9z"/>
	<path class="st1" d="M32.8,53.7c-0.1-0.1,0-0.2,0.1-0.2c1.6-0.5,3.1-0.9,4.8-1.2c1-0.9,2-1.9,2.8-3c-2.4,0.3-4.7,0.7-7,1.5
		c-0.3,0.1-0.7,0-0.8-0.1s-0.1-0.1-0.1-0.2c-2.7,0.7-5.4,1.2-8.2,1.4c-1.8,0.5-3.7,0.7-5.7,0.7H9.4v-1.8c-2.5-0.4-5-0.8-7.5-1.1v2.7
		c3,0.4,6,0.9,8.9,1.3c0.8,0.1,1.5,0.3,2.3,0.4c6.6,1.1,13.5,0.7,19.8-1.2c0.1,0,0.3,0,0.3,0.1c0.1,0.1,0,0.2-0.1,0.2
		C29,54.4,24.7,55,20.4,55c-2.5,0-5-0.2-7.5-0.6c-0.8-0.1-1.5-0.2-2.3-0.4c-2.9-0.5-5.8-0.9-8.8-1.3v2.8c0,1.1,0.4,1.9,1.1,2.7
		c0.7,0.7,1.6,1.1,2.7,1.1h13c5.4,0,10.2-1.2,14.5-3.6c1.5-0.8,2.8-1.8,4.1-2.9c-1.4,0.3-2.8,0.6-4.1,1C33,53.8,32.9,53.8,32.8,53.7
		z"/>
	<path class="st1" d="M45.7,38.2c0.1-0.3,0.1-0.7,0.2-1c-2.6,0.1-5.1,0.3-7.6,0.8c-0.1,0.3-0.2,0.6-0.3,0.9
		C40.6,38.5,43.2,38.3,45.7,38.2z"/>
	<path class="st1" d="M9.4,38.9c-2.5-0.4-5-0.8-7.5-1.1v1c2.5,0.3,5,0.7,7.5,1.1V38.9z"/>
	<path class="st1" d="M9.4,41.9c-2.5-0.4-5-0.8-7.5-1.1v1.4c2.5,0.3,5,0.7,7.5,1.1V41.9z"/>
	<path class="st1" d="M9.4,9.6h9.3c4,0,7.5,0.9,10.7,2.7c3.1,1.8,5.6,4.4,7.3,7.6c1.8,3.3,2.6,7,2.6,11.1c0,1.5-0.1,3-0.4,4.4
		c2.4-0.4,4.9-0.6,7.4-0.6c0.1-1.2,0.2-2.5,0.2-3.8c0-5.4-1.2-10.3-3.5-14.5c-2.4-4.2-5.6-7.6-9.9-10C28.9,4.2,24.1,3,18.6,3h-13
		C4.6,3,3.7,3.3,3,4C2.2,4.7,1.9,5.6,1.9,6.7v28.7c2.5,0.3,5,0.7,7.5,1.1V9.6z"/>
	<path class="st1" d="M45.2,40.2c-2.8,0.1-5.5,0.4-8.1,1c-0.2,0.3-0.3,0.7-0.5,1c-0.1,0.1-0.2,0.3-0.2,0.4c2.7-0.6,5.5-0.9,8.3-1
		C44.9,41.2,45.1,40.7,45.2,40.2z"/>
	<path class="st1" d="M33.9,47.8c-0.5,0.1-1,0-1.3-0.2l0,0h-0.1c-0.9,0.8-2,1.6-3.1,2.2c-0.6,0.3-1.2,0.7-1.8,0.9
		c1.8-0.3,3.7-0.7,5.4-1.2c0.3-0.1,0.7,0,0.8,0.2c0.1,0.1,0.1,0.1,0.1,0.2c2.4-0.7,4.8-1.1,7.3-1.4c0.5-0.7,1-1.5,1.5-2.3
		C39.6,46.4,36.7,46.9,33.9,47.8z"/>
	<path class="st1" d="M61.9,13.4c1.3,0,2.4-0.5,3.3-1.4s1.4-2.1,1.4-3.3c0-1.3-0.5-2.4-1.4-3.3S63.1,4,61.9,4s-2.4,0.5-3.3,1.4
		s-1.4,2.1-1.4,3.3c0,1.3,0.5,2.4,1.4,3.3S60.6,13.4,61.9,13.4z"/>
	<path class="st1" d="M58.2,49.9v2.7c2.5,0.3,4.9,0.7,7.3,1.1V51C63.2,50.6,60.7,50.3,58.2,49.9z"/>
	<path class="st1" d="M58.2,55.6c0,1.1,0.3,1.9,1,2.6c0.7,0.7,1.6,1,2.6,1c1.1,0,2-0.3,2.7-1c0.7-0.7,1-1.6,1-2.6V54
		c-2.4-0.4-4.9-0.8-7.3-1.1V55.6z"/>
	<path class="st1" d="M58.2,45.8c2.5,0.3,4.9,0.7,7.3,1.1v-1.8c-2.4-0.4-4.9-0.8-7.3-1.1V45.8z"/>
	<path class="st1" d="M65.6,23.5c0-1.1-0.3-2-1-2.7c-0.7-0.7-1.6-1-2.7-1c-1.1,0-1.9,0.3-2.6,1c-0.7,0.7-1,1.6-1,2.7v12.1
		c2.5,0.3,4.9,0.7,7.3,1.1V23.5z"/>
	<path class="st1" d="M65.6,40.1v-1c-2.4-0.4-4.9-0.8-7.3-1.1v1C60.7,39.3,63.2,39.7,65.6,40.1z"/>
	<path class="st1" d="M65.6,43.5v-1.4c-2.4-0.4-4.9-0.8-7.3-1.1v1.4C60.7,42.7,63.2,43.1,65.6,43.5z"/>
	<path class="st1" d="M65.6,48.1c-2.4-0.4-4.9-0.8-7.3-1.1v2.2c2.5,0.3,4.9,0.7,7.3,1.1V48.1z"/>
	<path class="st1" d="M101.8,49c-0.3,1.1-1,1.9-2.1,2.6l0,0c2.8,0,5.6,0.2,8.5,0.5c0.4-0.8,0.6-1.7,0.8-2.6
		C106.5,49.3,104.2,49.1,101.8,49z"/>
	<path class="st1" d="M97.5,43.2c0.9,0.3,1.6,0.7,2.2,1.1c0.3,0.2,0.6,0.4,0.9,0.7c2.8,0,5.5,0.2,8.3,0.5c-0.1-0.7-0.3-1.3-0.6-1.9
		C104.6,43.2,101,43,97.5,43.2z"/>
	<path class="st1" d="M102,48c0,0.1,0,0.2,0,0.4c2.4,0.1,4.7,0.3,7.1,0.5c0-0.4,0.1-0.8,0.1-1.2s0-0.7,0-1.1
		c-2.5-0.3-5.1-0.5-7.6-0.6C101.8,46.7,102,47.3,102,48z"/>
	<path class="st1" d="M82.5,48.6C81,48.8,79.5,49,78,49c-0.8,0.6-1.2,1.4-1.3,2.3c2.7-0.1,5.3-0.4,7.9-0.9c-0.5-0.4-0.9-0.7-1.3-1.1
		C83.1,49,82.8,48.8,82.5,48.6z"/>
	<path class="st1" d="M99.1,52c-1.5,0.7-3.4,1.1-5.8,1.1c-0.9,0-1.7-0.1-2.5-0.2c-1.2,0.3-2.5,0.6-3.7,1c-0.1,0-0.3,0-0.3-0.1
		c-0.1-0.1,0-0.1,0.1-0.2c-2.7,0.7-5.5,1.2-8.3,1.4c1.5,1.2,3.5,2.3,5.8,3.1c2.9,1,6,1.5,9.2,1.5c3.3,0,6.1-0.5,8.4-1.5
		s4.1-2.4,5.3-4.2c0.3-0.4,0.5-0.8,0.7-1.3C105,52.1,102.1,51.9,99.1,52z"/>
	<path class="st1" d="M87.5,51.9c-0.7-0.3-1.3-0.6-1.9-0.9c-2.9,0.6-5.9,1-8.9,1.1c0.1,0.8,0.3,1.4,0.9,2c0.2,0.2,0.4,0.4,0.6,0.6
		c3.3-0.2,6.5-0.8,9.7-1.7c0.1,0,0.3,0,0.3,0.1s0,0.1,0,0.1c0.6-0.2,1.2-0.3,1.8-0.5C89.1,52.5,88.3,52.2,87.5,51.9z"/>
	<path class="st1" d="M89.5,36.2c1-0.2,2-0.4,3-0.6c-1.5-0.4-2.7-0.7-3.7-1.1c-1.3-0.6-2.3-1.2-2.7-1.8c-0.5-0.6-0.7-1.5-0.7-2.4
		c0-1.3,0.7-2.4,2.1-3.1s3.2-1.1,5.4-1.1c1.9,0,3.6,0.2,4.9,0.7s2.6,1.2,3.8,2.3c1,0.9,2.1,1.4,3.4,1.4c0.8,0,1.5-0.2,2-0.6
		c0.8-0.7,1.2-1.4,1.2-2.2c0-0.8-0.3-1.5-0.9-2.3c-1.4-1.8-3.4-3.2-5.9-4.2c-2.5-1-5.3-1.5-8.4-1.5c-2.5,0-4.9,0.4-7.2,1.2
		c-2.3,0.8-4.1,2-5.5,3.7c-1.4,1.6-2.1,3.6-2.1,6c0,2.9,1.1,5.3,3.4,7.1c2.2-0.3,4.3-0.7,6.4-1.3C88.6,36.1,89.1,36.1,89.5,36.2z"/>
	<path class="st1" d="M88.1,39.6c0.4-0.1,0.9-0.1,1.3,0c4.2-1.1,8.5-1.4,12.8-1.3c-0.8-0.4-1.7-0.7-2.7-1c-3.6,0.1-7.1,0.6-10.5,1.7
		c-0.5,0.2-1.1,0.2-1.6,0.1c-0.8,0.2-1.7,0.4-2.6,0.5c0.4,0.2,0.8,0.4,1.3,0.6C86.8,39.9,87.4,39.8,88.1,39.6z"/>
	<path class="st1" d="M93.5,42.1c4.6-0.6,9.2-0.6,13.8-0.1c-0.4-0.5-0.9-1-1.4-1.5l0,0c-5.3-0.4-10.5-0.3-15.4,1
		c0.6,0.1,1.2,0.3,1.9,0.4C92.6,41.9,93,42,93.5,42.1z"/>
	<path class="st1" d="M121.9,44c1.7,0.3,3.5,0.5,5.3,0.5v-1.4c-2-0.1-3.9-0.3-5.9-0.6c-0.4-0.1-0.9-0.1-1.3-0.2v1.4
		C120.7,43.8,121.3,43.9,121.9,44z"/>
	<path class="st1" d="M122.5,37.3c1.6,0.3,3.1,0.4,4.7,0.5V27.5h6.1c1,0,1.8-0.3,2.4-0.9c0.6-0.6,0.9-1.3,0.9-2.2
		c0-1-0.3-1.7-0.9-2.3c-0.6-0.6-1.4-0.9-2.4-0.9h-6.1V10.9c0-1.1-0.3-1.9-1-2.6c-0.7-0.7-1.5-1-2.6-1s-1.9,0.3-2.6,1s-1,1.5-1,2.6
		v10.4h-3.3c-1,0-1.8,0.3-2.4,0.9s-0.9,1.3-0.9,2.3c0,0.9,0.3,1.6,0.9,2.2s1.4,0.9,2.4,0.9h3.3v9.5c0.1,0,0.1,0,0.2,0
		C121,37.1,121.8,37.2,122.5,37.3z"/>
	<path class="st1" d="M122.2,40.7c1.6,0.3,3.3,0.4,5,0.5v-1c-1.9-0.1-3.9-0.3-5.8-0.6c-0.5-0.1-1-0.2-1.4-0.2v1
		C120.8,40.5,121.5,40.6,122.2,40.7z"/>
	<path class="st1" d="M123.2,54.7c0.9,1,1.9,2,3,2.7c1.9,1.2,4.1,1.8,6.4,1.8h1.3c1.2,0,2.3-0.3,3.1-1s1.2-1.5,1.2-2.6
		c0-0.6-0.1-1.1-0.3-1.6c-3.1,0.7-6.3,1-9.5,1C126.7,55,125,54.9,123.2,54.7z"/>
	<path class="st1" d="M128.8,50.1c-0.3-0.3-0.5-0.6-0.7-1c-2.3,0-4.7-0.2-7-0.6c-0.3,0-0.6-0.1-0.8-0.1c0.1,0.8,0.3,1.6,0.6,2.3
		c0.1,0,0.3,0,0.4,0.1c2.9,0.5,5.9,0.6,8.8,0.6C129.7,51,129.2,50.6,128.8,50.1z"/>
	<path class="st1" d="M121.2,45.5c-0.4-0.1-0.8-0.1-1.2-0.2c0,0.6,0,1.2,0.1,1.8c0.5,0.1,1,0.2,1.5,0.2c2,0.3,4,0.5,6,0.6
		c-0.2-0.6-0.3-1.2-0.4-1.8C125.3,46,123.2,45.8,121.2,45.5z"/>
	<path class="st1" d="M121.3,51.5c0.1,0.3,0.3,0.6,0.4,0.9c0.4,0.7,0.8,1.4,1.3,2c4.9,0.6,10,0.4,14.8-0.7c-0.1-0.2-0.3-0.5-0.5-0.7
		c-0.6-0.7-1.3-1-2.2-1h-2.4c-0.3,0-0.6,0-0.9-0.1c-1.1,0.1-2.1,0.1-3.2,0.1C126.2,52.1,123.7,51.8,121.3,51.5z"/>
	<path class="st1" d="M152.4,41.6c-0.1-0.5-0.1-0.9-0.1-1.4c-2.4,0.1-4.7,0.4-7,0.9c0,0.4,0.1,0.8,0.1,1.2
		C147.7,42,150.1,41.7,152.4,41.6z"/>
	<path class="st1" d="M184.9,51.3v-2.2c-0.4,0-0.7,0-1.1,0c-2.6,0-5.1-0.2-7.7-0.6c-0.4-0.1-0.8-0.1-1.2-0.2c-0.6,0.7-1.2,1.4-1.9,2
		c1.1,0.2,2.2,0.3,3.3,0.5C179.2,51.2,182,51.4,184.9,51.3z"/>
	<path class="st1" d="M184.9,41.2v-1c-0.2,0-0.3,0-0.5,0c-2.2,0-4.4-0.2-6.5-0.4c0,0.3,0,0.6-0.1,1
		C180.1,41.1,182.5,41.3,184.9,41.2z"/>
	<path class="st1" d="M183.6,52.1c-2.5,0-5.1-0.2-7.6-0.6c-1.1-0.2-2.2-0.3-3.3-0.5c-0.2,0-0.3,0-0.5-0.1c-0.2,0.1-0.4,0.3-0.6,0.4
		c-1.3,0.8-2.7,1.3-4.2,1.5c1.8,0.2,3.5,0.5,5.3,0.8c1.1,0.2,2.2,0.3,3.3,0.5c0.1,0,0.3,0,0.4,0.1c0.4-0.4,0.7-0.8,1.1-1.2v1.3
		c2.4,0.3,4.9,0.4,7.3,0.4V52C184.5,52,184,52.1,183.6,52.1z"/>
	<path class="st1" d="M172.6,53.9c-2.1-0.3-4.2-0.6-6.3-0.9c-0.4,0-0.8,0.1-1.2,0.1c-1.5,0-2.9-0.2-4.2-0.7c-4-0.4-7.9-0.5-11.8-0.1
		c1.4,1.9,3.1,3.5,5.1,4.7c2.8,1.7,5.9,2.6,9.4,2.6c2.8,0,5.4-0.6,7.8-1.7c1.8-0.9,3.4-2,4.8-3.4c-0.1,0-0.2,0-0.3,0
		C174.8,54.2,173.7,54,172.6,53.9z"/>
	<path class="st1" d="M145.6,44c0.1,0.6,0.2,1.1,0.4,1.7c2.4-0.4,4.8-0.6,7.3-0.7c-0.2-0.6-0.4-1.2-0.6-1.8
		C150.3,43.2,147.9,43.5,145.6,44z"/>
	<path class="st1" d="M152.3,38.3c0-0.3,0.1-0.7,0.1-1c-2.4,0.1-4.8,0.4-7.2,1c0,0.3,0,0.5,0,0.8C147.6,38.6,150,38.4,152.3,38.3z"
		/>
	<path class="st1" d="M154,32.7c1.1-2.1,2.7-3.7,4.6-4.9c1.9-1.2,4.1-1.8,6.5-1.8s4.6,0.6,6.5,1.8c1.9,1.2,3.5,2.8,4.6,4.9
		c0.8,1.4,1.3,3,1.5,4.7c2.4,0.4,4.8,0.6,7.2,0.5c-0.2-3.1-1.1-5.9-2.6-8.5c-1.8-3-4.1-5.4-7.1-7.2c-3-1.8-6.3-2.6-10-2.6
		s-7.1,0.9-10.1,2.6c-3,1.8-5.4,4.2-7.2,7.2c-1.1,2-1.9,4.1-2.3,6.3c2.5-0.5,5-0.7,7.5-0.8C153.3,34.1,153.6,33.4,154,32.7z"/>
	<path class="st1" d="M184,46.2c-2.5,0-5-0.2-7.4-0.6c-0.1,0.3-0.3,0.6-0.4,0.9c-0.2,0.3-0.3,0.5-0.5,0.8c0.3,0,0.6,0.1,1,0.1
		c2.7,0.4,5.5,0.6,8.3,0.5v-1.8C184.6,46.1,184.3,46.2,184,46.2z"/>
	<path class="st1" d="M159.9,51.9c-0.5-0.2-0.9-0.4-1.3-0.7c-1-0.6-1.9-1.4-2.7-2.2c-2.8-0.1-5.6,0-8.4,0.4c0,0.1,0.1,0.2,0.1,0.3
		c0.4,0.8,0.8,1.5,1.3,2.2C152.5,51.6,156.2,51.6,159.9,51.9z"/>
	<path class="st1" d="M177.5,54.6v1c0,1.1,0.3,1.9,1,2.6c0.7,0.7,1.6,1,2.6,1c1.1,0,1.9-0.3,2.6-1c0.7-0.7,1-1.6,1-2.6V55
		c-0.5,0-1,0-1.5,0C181.5,55,179.5,54.9,177.5,54.6z"/>
	<path class="st1" d="M184.9,44.6v-1.4c-0.2,0-0.5,0-0.7,0c-2.2,0-4.5-0.2-6.7-0.5c-0.1,0.5-0.2,0.9-0.4,1.3
		C179.7,44.5,182.3,44.6,184.9,44.6z"/>
	<path class="st1" d="M153.8,46.1c-2.5,0-5,0.2-7.4,0.7c0.2,0.7,0.5,1.4,0.8,2c2.7-0.4,5.4-0.5,8.1-0.4c-0.5-0.6-0.9-1.2-1.3-1.9
		C153.9,46.3,153.9,46.2,153.8,46.1z"/>
	<path class="st1" d="M195.8,50.4v2.5c0,0,0,0,0.1,0h0.1c2.3-0.6,4.8-0.9,7.2-1.1v-2.6C200.7,49.4,198.2,49.8,195.8,50.4z"/>
	<path class="st1" d="M229.1,48.5l-1.5-0.2c-0.7-0.1-1.5-0.2-2.2-0.4v2.2c0.8,0.1,1.6,0.3,2.4,0.4l1.5,0.2c1.1,0.2,2.3,0.3,3.4,0.4
		v-2.2C231.6,48.8,230.3,48.7,229.1,48.5z"/>
	<path class="st1" d="M195.8,44.7v1.6h0.1c0.1,0,0.1,0,0.2,0c2.3-0.6,4.6-0.9,7-1.1v-1.8C200.7,43.5,198.2,44,195.8,44.7z"/>
	<path class="st1" d="M196.6,36.2c2.2-0.5,4.4-0.9,6.6-1.1c0-1.6,0.5-3.1,1.4-4.4c0.9-1.4,2.2-2.5,3.9-3.3s3.5-1.2,5.5-1.2
		c3.5,0,6.2,1,8.3,3c1.8,1.7,2.9,4.2,3.1,7.4c1.2,0.2,2.4,0.4,3.6,0.6l1.5,0.2c0.7,0.1,1.5,0.2,2.2,0.3c0-3.8-0.8-7-2.2-9.7
		c-1.5-2.8-3.6-4.9-6.2-6.3c-2.6-1.4-5.6-2.2-8.9-2.2c-2.4,0-4.7,0.4-6.8,1.3c-2.1,0.8-3.9,2-5.5,3.6v-0.8c0-1.1-0.3-2-1-2.7
		s-1.6-1-2.7-1c-1.1,0-1.9,0.3-2.6,1c-0.7,0.7-1,1.6-1,2.7v12.8c0.1,0,0.2,0,0.3-0.1C196.3,36.2,196.4,36.2,196.6,36.2z"/>
	<path class="st1" d="M229,51.4l-1.5-0.2c-0.7-0.1-1.4-0.2-2.1-0.3v2.7c0.7,0.1,1.4,0.2,2.1,0.3l1.5,0.2c1.2,0.2,2.5,0.3,3.7,0.4
		v-2.6C231.5,51.8,230.3,51.6,229,51.4z"/>
	<path class="st1" d="M229.2,45.5l-1.5-0.2c-0.8-0.1-1.5-0.2-2.3-0.4v1.8c0.9,0.1,1.8,0.3,2.7,0.4l1.5,0.2c1,0.2,2.1,0.3,3.1,0.4V46
		C231.6,45.9,230.4,45.7,229.2,45.5z"/>
	<path class="st1" d="M195.8,47.6v2.1h0.1c0.1,0,0.1,0,0.2,0c2.3-0.6,4.7-0.9,7-1.1v-2.2C200.7,46.5,198.2,46.9,195.8,47.6z"/>
	<path class="st1" d="M228.7,40.4l1.5,0.2c0.8,0.1,1.7,0.3,2.5,0.3v-1c-1.1-0.1-2.2-0.2-3.3-0.4l-1.5-0.2c-0.8-0.1-1.7-0.3-2.5-0.4
		v1C226.5,40.1,227.6,40.3,228.7,40.4z"/>
	<path class="st1" d="M196,42.9c0.1,0,0.1,0,0.2,0c2.3-0.6,4.6-0.9,7-1.1v-1.4c-2.5,0.2-5,0.7-7.3,1.4V43
		C195.9,42.9,196,42.9,196,42.9z"/>
	<path class="st1" d="M195.8,55.6c0,1.1,0.3,1.9,1,2.6c0.7,0.7,1.6,1,2.6,1c1.1,0,2-0.3,2.7-1s1-1.6,1-2.6v-3.5
		c-2.5,0.2-5,0.6-7.3,1.2V55.6z"/>
	<path class="st1" d="M228.4,43.8l1.5,0.2c0.9,0.2,1.9,0.3,2.8,0.4V43c-1.1-0.1-2.3-0.2-3.4-0.4l-1.5-0.2c-0.8-0.1-1.6-0.3-2.4-0.4
		v1.4C226.4,43.5,227.4,43.6,228.4,43.8z"/>
	<path class="st1" d="M196.2,39.6c2.3-0.6,4.6-0.9,6.9-1.1v-1c-2.5,0.2-4.9,0.7-7.2,1.4h-0.1v0.7c0.1,0,0.2,0,0.2-0.1
		C196.1,39.6,196.2,39.6,196.2,39.6z"/>
	<path class="st1" d="M227.4,54.1c-0.7-0.1-1.3-0.2-2-0.3v1.8c0,1.1,0.3,1.9,1,2.6c0.7,0.7,1.6,1,2.6,1c1.1,0,1.9-0.3,2.6-1
		c0.7-0.7,1-1.6,1-2.6v-0.8c-1.3-0.1-2.6-0.3-3.8-0.5L227.4,54.1z"/>
	<path class="st1" d="M249.9,47.8c-0.5,0.1-1,0-1.3-0.2l0,0c-0.6,0.1-1.1,0.3-1.7,0.4c0.1,0.7,0.3,1.4,0.5,2
		c0.5-0.1,1.1-0.3,1.6-0.4c0.3-0.1,0.7,0,0.8,0.2c0.1,0.1,0.1,0.1,0.1,0.2c1.6-0.5,3.2-0.8,4.8-1.1c-0.3-0.6-0.5-1.3-0.7-2
		C252.6,47.1,251.2,47.4,249.9,47.8z"/>
	<path class="st1" d="M249.1,39.6c0.6-0.2,1.2-0.1,1.7,0.1c1-0.3,2-0.5,3-0.7v-0.8c-1,0.2-1.9,0.5-2.8,0.8c-0.7,0.2-1.4,0.2-2,0
		c-0.8,0.2-1.6,0.4-2.3,0.5v0.8C247.4,40,248.3,39.8,249.1,39.6z"/>
	<path class="st1" d="M249,42.9c0.5-0.2,1.1-0.1,1.5,0.2c1.1-0.3,2.2-0.5,3.3-0.7V41c-1.1,0.2-2.1,0.5-3.2,0.8
		c-0.6,0.2-1.3,0.1-1.8-0.1c-0.7,0.2-1.4,0.3-2.2,0.5v1.3C247.4,43.4,248.2,43.2,249,42.9z"/>
	<path class="st1" d="M251,36.3c0.9-0.2,1.9-0.4,2.8-0.6v-8.2h6.1c1,0,1.8-0.3,2.4-0.9s0.9-1.3,0.9-2.2c0-1-0.3-1.7-0.9-2.3
		c-0.6-0.6-1.4-0.9-2.4-0.9h-6.1V10.9c0-1.1-0.3-1.9-1-2.6c-0.7-0.7-1.5-1-2.6-1s-1.9,0.3-2.6,1s-1,1.5-1,2.6v10.4h-3.3
		c-1,0-1.8,0.3-2.4,0.9c-0.6,0.6-0.9,1.3-0.9,2.3c0,0.9,0.3,1.6,0.9,2.2c0.6,0.6,1.4,0.9,2.4,0.9h3.3V37c0.8-0.2,1.7-0.4,2.5-0.6
		C249.7,36.1,250.4,36.1,251,36.3z"/>
	<path class="st1" d="M249.1,53.8c1,1.5,2.2,2.7,3.7,3.6c1.9,1.2,4.1,1.8,6.4,1.8h1.3c1.2,0,2.3-0.3,3.1-1s1.2-1.5,1.2-2.6
		s-0.3-1.9-0.9-2.6c-0.6-0.7-1.3-1-2.2-1h-1.9C256.2,52.2,252.6,52.7,249.1,53.8L249.1,53.8z"/>
	<path class="st1" d="M253.8,43.9c-1.2,0.2-2.4,0.5-3.6,0.9c-0.5,0.2-1.2,0.1-1.6-0.2c-0.7,0.2-1.4,0.3-2.1,0.5v0.1
		c0,0.5,0,1.1,0.1,1.6c0.8-0.2,1.5-0.4,2.3-0.6c0.5-0.1,1,0,1.2,0.2c1.2-0.3,2.4-0.6,3.6-0.8c0-0.1,0-0.3,0-0.4v-1.3H253.8z"/>
	<path class="st1" d="M255.4,50.1c-0.1-0.2-0.2-0.4-0.4-0.6c-1.9,0.3-3.7,0.7-5.5,1.3c-0.3,0.1-0.7,0-0.8-0.1s-0.1-0.1-0.1-0.2
		c-0.4,0.1-0.7,0.2-1.1,0.3c0.2,0.6,0.4,1.1,0.7,1.6c0.1,0.2,0.2,0.4,0.4,0.6c0.1,0,0.2,0,0.3-0.1c0.1,0,0.3,0,0.3,0.1
		c0.1,0.1,0,0.2-0.1,0.2s-0.2,0.1-0.3,0.1c0,0.1,0.1,0.2,0.1,0.2c2.9-0.9,5.9-1.4,9-1.7C257,51.6,256.1,51,255.4,50.1z"/>
	<path class="st1" d="M296.2,44c-0.3,0-0.6,0-0.7,0.1c-0.5,0.1-1,0.3-1.4,0.5c1.2-0.1,2.3-0.2,3.5-0.3C297.2,44.1,296.7,44,296.2,44
		z"/>
	<path class="st1" d="M313.5,53.2c-1.9,0-3.7-0.2-5.4-0.7c-2,0.3-4,0.7-6,1.3c-0.1,0-0.2,0-0.2,0c-1.4,0.3-2.9,0.6-4.4,0.8
		c1,0.8,2,1.5,3.2,2.2c3.8,2.1,8.1,3.2,12.7,3.2c3.6,0,6.9-0.6,10-1.8c2.7-1.1,5-2.7,6.8-4.7c-3.5-0.5-7-1-10.5-1.2
		C317.9,52.8,315.8,53.2,313.5,53.2z"/>
	<path class="st1" d="M329,32.2c-3.2-2.9-7.6-4.6-13.4-5.2c-5.2-0.5-8.8-1.6-10.8-3.3c-2-1.7-3-3.8-3-6.3c0-2.7,1.1-4.7,3.4-6.2
		c2.3-1.4,5.2-2.1,8.9-2.1c3,0,5.4,0.6,7.4,1.7c1.9,1.1,3.6,2.8,4.9,4.9c0.3,0.6,0.8,1.1,1.4,1.5s1.3,0.5,2,0.5s1.3-0.2,1.9-0.5
		c1-0.7,1.4-1.5,1.4-2.6c0-0.8-0.3-1.7-0.9-2.6c-2-3.1-4.4-5.5-7.2-7.2c-2.8-1.7-6.3-2.5-10.4-2.5c-3.8,0-7.2,0.6-10.3,1.8
		c-3,1.2-5.4,2.9-7.2,5.1c-1.8,2.2-2.6,4.9-2.6,8c0,4.4,1.7,8,5.1,10.9s8.1,4.6,14,5.2c2.7,0.3,5,0.9,6.9,1.7
		c3.9,0.2,7.8,0.8,11.7,1.3C331.3,34.8,330.3,33.4,329,32.2z"/>
	<path class="st1" d="M305.1,51.2c-0.5-0.2-0.9-0.5-1.4-0.8c-0.4,0.1-0.8,0.2-1.2,0.4c-0.1,0-0.3,0-0.4,0c-2.4,0.6-4.8,0.9-7.2,1.1
		c0.7,0.8,1.4,1.6,2.3,2.4c2.3-0.3,4.5-0.7,6.7-1.4h0.1c1.1-0.3,2.3-0.5,3.5-0.7C306.6,51.9,305.8,51.6,305.1,51.2z"/>
	<path class="st1" d="M292.5,47.1c0,0.2,0.1,0.6,0.2,0.9c2.6,0,5.1-0.3,7.6-0.8c-0.1-0.2-0.2-0.4-0.3-0.7c-0.1-0.3-0.3-0.6-0.5-0.9
		c-2.2,0.3-4.5,0.5-6.7,0.6C292.6,46.4,292.5,46.7,292.5,47.1z"/>
	<path class="st1" d="M332.1,50.7c-2.7-0.4-5.4-0.8-8.1-1.1c-0.4,0.4-0.9,0.8-1.4,1.1c-0.7,0.5-1.5,0.9-2.3,1.2
		c3.4,0.3,6.8,0.7,10.1,1.2c0.1-0.2,0.3-0.4,0.4-0.5C331.4,52,331.8,51.3,332.1,50.7z"/>
	<path class="st1" d="M333.7,43.4c0-0.5,0-0.9-0.1-1.4c-2.6-0.4-5.2-0.8-7.7-1.1c0.2,0.5,0.3,1,0.3,1.4
		C328.7,42.7,331.2,43,333.7,43.4z"/>
	<path class="st1" d="M301,48.2c-2.6,0.5-5.2,0.8-7.9,0.9c0.4,0.8,0.8,1.5,1.2,2.2c2.9-0.2,5.7-0.6,8.4-1.4
		C302.1,49.3,301.5,48.8,301,48.2z"/>
	<path class="st1" d="M333.3,40c-0.1-0.3-0.1-0.7-0.2-1c-3.1-0.5-6.1-0.9-9.1-1.2c0.3,0.3,0.6,0.7,0.8,1.1
		C327.7,39.1,330.5,39.5,333.3,40z"/>
	<path class="st1" d="M326.4,43.9c0,0.6-0.1,1.2-0.2,1.8c2.4,0.3,4.9,0.7,7.3,1c0.1-0.6,0.2-1.2,0.2-1.8
		C331.2,44.6,328.8,44.2,326.4,43.9z"/>
	<path class="st1" d="M324.6,48.9c2.6,0.3,5.2,0.7,7.8,1.1c0.3-0.7,0.6-1.4,0.8-2.1c-2.4-0.4-4.9-0.7-7.3-1
		C325.6,47.6,325.1,48.3,324.6,48.9z"/>
	<path class="st1" d="M344.4,52v2.7c2.5,0,4.9-0.2,7.3-0.6v-2.6c-2.4,0.4-4.8,0.6-7.2,0.6C344.6,52.1,344.5,52,344.4,52z"/>
	<path class="st1" d="M374,46.2v2.2c2.4,0.1,4.9,0.4,7.3,0.7v-2.2C378.9,46.6,376.5,46.3,374,46.2z"/>
	<path class="st1" d="M344.8,49.1c-0.1,0-0.2,0-0.4,0v2.2c2.5,0,4.9-0.2,7.3-0.6v-2.2C349.5,48.9,347.1,49.1,344.8,49.1z"/>
	<path class="st1" d="M381.4,49.9c-2.5-0.3-4.9-0.6-7.3-0.7v2.7c2.4,0.1,4.9,0.4,7.3,0.7V49.9z"/>
	<path class="st1" d="M381.4,42.4V41c-2.5-0.3-4.9-0.6-7.3-0.7v1.4C376.5,41.8,378.9,42.1,381.4,42.4z"/>
	<path class="st1" d="M374,55.6c0,1.1,0.3,1.9,1,2.6c0.7,0.7,1.6,1,2.6,1c1.1,0,1.9-0.3,2.6-1s1-1.6,1-2.6v-2.8
		c-2.5-0.3-4.9-0.6-7.3-0.7L374,55.6L374,55.6z"/>
	<path class="st1" d="M351.8,37.4v-2.1c0-1.7,0.5-3.3,1.4-4.7c0.9-1.4,2.2-2.5,3.9-3.3c1.7-0.8,3.5-1.2,5.5-1.2c3.5,0,6.2,1,8.3,3
		c1.5,1.4,2.5,3.4,2.9,5.9c2.5,0.1,5,0.3,7.5,0.6c-0.2-2.9-0.9-5.5-2.1-7.6c-1.5-2.8-3.6-4.9-6.2-6.3c-2.6-1.4-5.6-2.2-8.9-2.2
		c-2.4,0-4.7,0.4-6.8,1.3c-2.1,0.8-3.9,2-5.5,3.6V6.7c0-1.1-0.3-2-1-2.7s-1.6-1-2.7-1s-1.9,0.3-2.6,1s-1,1.6-1,2.7v31.2
		C346.9,37.9,349.4,37.8,351.8,37.4z"/>
	<path class="st1" d="M344.4,55.6c0,1.1,0.3,1.9,1,2.6c0.7,0.7,1.6,1,2.6,1c1.1,0,2-0.3,2.7-1s1-1.6,1-2.6v-1.2
		c-2.4,0.4-4.9,0.6-7.3,0.6L344.4,55.6L344.4,55.6z"/>
	<path class="st1" d="M351.8,44.1v-1.3c-2.2,0.3-4.4,0.5-6.6,0.5c-0.2,0-0.5,0-0.7,0v1.4C346.9,44.6,349.4,44.5,351.8,44.1z"/>
	<path class="st1" d="M351.8,40.7v-0.9c-2.1,0.3-4.3,0.4-6.4,0.4c-0.3,0-0.6,0-0.9,0v1C346.9,41.3,349.4,41.1,351.8,40.7z"/>
	<path class="st1" d="M374,38.3c2.4,0.1,4.9,0.4,7.3,0.7v-1c-2.5-0.3-4.9-0.6-7.4-0.7c0,0.2,0,0.4,0,0.6v0.4H374z"/>
	<path class="st1" d="M345,46.2c-0.2,0-0.4,0-0.6,0V48c2.5,0,4.9-0.2,7.3-0.5v-1.7C349.5,46,347.3,46.2,345,46.2z"/>
	<path class="st1" d="M374,43.2V45c2.4,0.1,4.9,0.4,7.3,0.7v-1.8C378.9,43.6,376.5,43.4,374,43.2z"/>
	<path class="st1" d="M398.7,37.9c0.2-1.9,0.7-3.7,1.6-5.3c1.1-2.1,2.6-3.7,4.6-4.8s4.1-1.7,6.6-1.7s4.6,0.6,6.6,1.7
		c1.9,1.2,3.5,2.8,4.5,4.8c0.4,0.7,0.7,1.5,0.9,2.3c2.4,0,4.9,0.1,7.4,0.3c-0.4-2.2-1.1-4.2-2.2-6c-1.7-3-4.1-5.4-7.1-7.1
		s-6.4-2.6-10.2-2.6c-3.8,0-7.3,0.9-10.3,2.6s-5.4,4.1-7.1,7.1c-1.3,2.4-2.1,5-2.4,7.9c0.6,0.1,1.2,0.2,1.8,0.3
		C395.2,37.6,397,37.8,398.7,37.9z"/>
	<path class="st1" d="M431.2,38.6c0-0.3,0-0.7-0.1-1c-2.4-0.2-4.8-0.4-7.1-0.4c0,0.3,0.1,0.7,0.1,1
		C426.5,38.3,428.9,38.4,431.2,38.6z"/>
	<path class="st1" d="M413.9,52.8L413.9,52.8c-1.3,0.3-2.5,0.6-3.8,1c-0.1,0-0.2,0-0.2,0c-3.4,0.8-6.9,1.2-10.5,1.2
		c-0.4,0-0.7,0-1.1,0c0.9,0.7,1.8,1.4,2.9,2c3,1.7,6.5,2.6,10.3,2.6s7.3-0.9,10.3-2.6c2.2-1.3,4-2.9,5.5-4.8
		C422.7,51.8,418.2,51.9,413.9,52.8z"/>
	<path class="st1" d="M400.1,46.1H400c-2.6,0-5.1-0.2-7.6-0.6c0.2,0.6,0.4,1.3,0.6,1.9c2.7,0.4,5.5,0.6,8.2,0.5
		c-0.3-0.4-0.6-0.9-0.9-1.4C400.2,46.4,400.2,46.3,400.1,46.1z"/>
	<path class="st1" d="M392.9,44c2.2,0.3,4.4,0.5,6.6,0.5c-0.2-0.5-0.3-0.9-0.4-1.4c-2.3-0.1-4.5-0.3-6.7-0.6c-0.2,0-0.4-0.1-0.6-0.1
		c0.1,0.5,0.1,1,0.2,1.4C392.3,43.9,392.6,44,392.9,44z"/>
	<path class="st1" d="M404.5,51.1c-0.9-0.6-1.7-1.2-2.4-2c-0.8,0-1.5,0.1-2.3,0.1c-2.1,0-4.2-0.2-6.3-0.4c0.2,0.4,0.4,0.8,0.6,1.2
		s0.5,0.8,0.7,1.2C398.1,51.4,401.3,51.4,404.5,51.1z"/>
	<path class="st1" d="M422.8,46.1c-0.1,0.1-0.1,0.3-0.2,0.4c-0.4,0.7-0.8,1.3-1.2,1.8c2.6-0.1,5.3,0,8,0.3c0.3-0.7,0.6-1.4,0.9-2.2
		C427.7,46.2,425.2,46.1,422.8,46.1z"/>
	<path class="st1" d="M429,49.3c-2.8-0.2-5.5-0.3-8.3-0.2c-0.8,0.9-1.7,1.6-2.7,2.2c-0.5,0.3-1,0.6-1.6,0.8c3.6-0.5,7.3-0.5,11-0.2
		c0.5-0.6,0.9-1.3,1.3-2C428.9,49.7,428.9,49.5,429,49.3z"/>
	<path class="st1" d="M423.8,43.1c-0.1,0.6-0.3,1.2-0.5,1.8c2.4,0,4.8,0.1,7.3,0.4c0.2-0.6,0.3-1.2,0.4-1.8
		C428.5,43.3,426.2,43.1,423.8,43.1z"/>
	<path class="st1" d="M405.6,51.7c-2,0.3-4,0.4-6,0.4c-1.4,0-2.8-0.1-4.2-0.2c0.8,1,1.6,2,2.6,2.8c4.6,0.2,9.2-0.4,13.6-1.6l0,0
		C409.3,53,407.4,52.6,405.6,51.7z"/>
	<path class="st1" d="M391.6,40.4c0.5,0.1,1.1,0.2,1.6,0.2c1.8,0.3,3.7,0.5,5.5,0.5c0-0.3,0-0.7-0.1-1c-2.1-0.1-4.2-0.3-6.2-0.6
		c-0.3,0-0.6-0.1-0.9-0.1v0.1C391.6,39.9,391.6,40.2,391.6,40.4z"/>
	<path class="st1" d="M431.1,42c0-0.5,0.1-0.9,0.1-1.4c-2.4-0.2-4.7-0.4-7.1-0.4c0,0.5,0,1-0.1,1.4C426.4,41.6,428.8,41.8,431.1,42z
		"/>
	<path class="st1" d="M442.2,54v1.7c0,1.2,0.3,2.1,0.9,2.7c0.6,0.6,1.5,0.9,2.7,0.9s2.1-0.3,2.7-0.9c0.6-0.6,0.9-1.5,0.9-2.7V55
		c-1.5-0.1-3-0.3-4.5-0.5C444,54.2,443.1,54.1,442.2,54z"/>
	<path class="st1" d="M446.5,37.3c1,0.2,1.9,0.3,2.9,0.4v-3.1c0-2.7,1.1-4.8,3.2-6.4s4.9-2.4,8.4-2.4c1.2,0,2.8,0.2,4.7,0.5
		c0.5,0.1,0.8,0.1,1.1,0.1c1.5,0,2.4-0.8,2.9-2.3c0-0.1,0.1-0.4,0.1-0.7c0-1.2-0.7-2.1-2.2-2.9s-3.4-1.2-6-1.2
		c-2.4,0-4.7,0.5-6.8,1.4c-2.1,1-3.9,2.3-5.3,4v-1.4c0-2.4-1.2-3.6-3.6-3.6c-1.2,0-2,0.3-2.7,0.9c-0.6,0.6-0.9,1.5-0.9,2.7v13.3
		c0.3,0,0.6,0.1,0.9,0.1C444.3,37,445.4,37.2,446.5,37.3z"/>
	<path class="st1" d="M445.1,48.5c-1-0.2-1.9-0.3-2.9-0.4v2.2c1,0.2,2.1,0.3,3.1,0.5c1.3,0.2,2.7,0.4,4.1,0.4V49
		C448,48.9,446.6,48.7,445.1,48.5z"/>
	<path class="st1" d="M445.2,45.5c-1-0.2-2-0.3-3-0.5v1.8c0,0,0,0,0.1,0c1.1,0.2,2.2,0.3,3.3,0.5c1.3,0.2,2.5,0.3,3.8,0.4V46
		C448,45.9,446.6,45.7,445.2,45.5z"/>
	<path class="st1" d="M442.6,43.5c1.1,0.2,2.2,0.3,3.3,0.5c1.2,0.2,2.3,0.3,3.5,0.4V43c-1.4-0.1-2.7-0.3-4.1-0.5
		c-1-0.2-2.1-0.3-3.1-0.5v1.4C442.3,43.5,442.5,43.5,442.6,43.5z"/>
	<path class="st1" d="M442.2,51v2.7c0.9,0.1,1.9,0.3,2.8,0.4c1.4,0.2,2.9,0.4,4.4,0.5v-2.7c-1.5-0.1-2.9-0.3-4.4-0.5
		C444.1,51.3,443.2,51.1,442.2,51z"/>
	<path class="st1" d="M442.9,40.2c1.1,0.2,2.2,0.3,3.3,0.5c1.1,0.2,2.1,0.3,3.2,0.4v-1c-1.3-0.1-2.7-0.3-4-0.5
		c-1-0.2-2.1-0.3-3.2-0.5v1C442.4,40.1,442.7,40.2,442.9,40.2z"/>
	<path class="st1" d="M487,52.3c-1.2-0.5-2.4-1.2-3.4-2c-0.4-0.3-0.8-0.7-1.1-1c-2.7-0.2-5.3-0.2-7.9,0c0.1,0.2,0.2,0.5,0.4,0.7
		c0.4,0.6,0.8,1.3,1.2,1.8C479.7,51.6,483.4,51.8,487,52.3z"/>
	<path class="st1" d="M497.9,40.2c1.1,0.2,2.2,0.3,3.3,0.5c2.5,0.4,5,0.6,7.5,0.5c0,0,0,0,0.1,0c0.3-0.3,0.5-0.6,0.7-0.9
		c-0.3,0-0.7,0-1,0c-2.7,0-5.3-0.2-7.9-0.6c-1.1-0.2-2.2-0.3-3.3-0.5c-8.7-1.3-17-2.6-24.8-1.4c0,0.3,0,0.6-0.1,0.9
		C480.7,37.6,489.4,38.9,497.9,40.2z"/>
	<path class="st1" d="M496.6,53.9c-1.2-0.2-2.5-0.4-3.7-0.6l0,0c-1.6,0-3.1-0.2-4.5-0.6c-4-0.5-8-0.8-12-0.7c1.6,2,3.5,3.7,5.9,5
		c3.1,1.7,6.6,2.6,10.6,2.6c2.2,0,4.5-0.4,6.9-1.2s4.5-1.9,6.1-3.2c0.1,0,0.1-0.1,0.2-0.1c-2-0.1-4.1-0.3-6.1-0.6
		C498.8,54.2,497.7,54,496.6,53.9z"/>
	<path class="st1" d="M472.6,43.5c0.1,0.6,0.2,1.2,0.4,1.7c2.2-0.2,4.5-0.3,6.8-0.2c-0.2-0.6-0.4-1.2-0.6-1.9
		C477,43.1,474.8,43.2,472.6,43.5z"/>
	<path class="st1" d="M472.3,40.6c0,0.5,0.1,0.9,0.1,1.3c4.7-0.6,9.6-0.4,14.5,0.1h10.3c-0.1,0-0.1,0-0.2,0
		C488.5,40.8,480.1,39.5,472.3,40.6z"/>
	<path class="st1" d="M507,53c0-0.3-0.1-0.6-0.2-0.9c-2.3,0-4.6-0.3-6.8-0.6h-0.1c-0.8,0.4-1.6,0.8-2.6,1.1c-1,0.4-2.1,0.6-3.1,0.7
		c0.8,0.1,1.6,0.2,2.4,0.4c1.1,0.2,2.2,0.3,3.3,0.5c2.1,0.3,4.2,0.5,6.3,0.6C506.8,54.2,507,53.6,507,53z"/>
	<path class="st1" d="M505.7,50.5c-0.5-0.5-1.2-0.7-2.2-0.7c-0.9,0-1.7,0.3-2.4,0.8c-0.1,0.1-0.2,0.1-0.3,0.2
		c1.8,0.3,3.7,0.4,5.6,0.5C506.2,51,506,50.8,505.7,50.5z"/>
	<path class="st1" d="M479.4,34.9c0.7-2.5,2-4.6,3.8-6.3c2.2-1.9,5-2.9,8.5-2.9c3.2,0,5.7,1,7.7,2.9s3.2,4.5,3.6,7.7h-8.3
		c1.1,0.2,2.3,0.3,3.4,0.5s2.2,0.3,3.3,0.5c2.7,0.5,5.4,0.6,8.2,0.5c-0.1-3.4-0.8-6.4-2.1-9c-1.4-2.9-3.5-5.2-6.2-6.8
		c-2.7-1.6-5.9-2.4-9.6-2.4s-7.1,0.9-10,2.6c-3,1.7-5.3,4.1-6.9,7.1c-1,1.9-1.7,3.9-2.1,6C474.9,35,477.2,34.9,479.4,34.9z"/>
	<path class="st1" d="M473.3,46.3c0.2,0.7,0.5,1.4,0.9,2.1c2.5-0.2,5-0.2,7.6,0c-0.6-0.7-1.1-1.5-1.5-2.3
		C477.9,46,475.6,46.1,473.3,46.3z"/>
	<path class="st1" d="M530,34.9c-0.5-0.2-1-0.3-1.4-0.5c-1.3-0.6-2.3-1.2-2.7-1.8c-0.5-0.6-0.7-1.5-0.7-2.4c0-1.3,0.7-2.4,2.1-3.1
		s3.2-1.1,5.4-1.1c1.9,0,3.6,0.2,4.9,0.7c1.3,0.5,2.6,1.2,3.8,2.3c1,0.9,2.1,1.4,3.4,1.4c0.8,0,1.5-0.2,2-0.6
		c0.8-0.7,1.2-1.4,1.2-2.2c0-0.8-0.3-1.5-0.9-2.3c-1.4-1.8-3.4-3.2-5.9-4.2c-2.5-1-5.3-1.5-8.4-1.5c-2.5,0-4.9,0.4-7.2,1.2
		c-2.3,0.8-4.1,2-5.5,3.7c-1.4,1.6-2.1,3.6-2.1,6c0,2.2,0.7,4.2,2.1,5.8c0.1,0,0.3-0.1,0.4-0.1C523.7,35.4,526.8,35,530,34.9z"/>
	<path class="st1" d="M533.1,53c-1.9,0-3.7-0.3-5.4-1c-3.3,0.2-6.5,0.7-9.6,1.7c-0.1,0-0.2,0-0.2,0c-0.2,0-0.4,0.1-0.6,0.1l0.1,0.1
		c1.6,1.6,3.9,3,6.8,4s6,1.5,9.2,1.5c3.3,0,6.1-0.5,8.4-1.5c2.3-1,4.1-2.4,5.3-4.2c0-0.1,0.1-0.1,0.1-0.2c-3.1-0.5-6.1-0.9-9.2-1.2
		C536.6,52.8,535,53,533.1,53z"/>
	<path class="st1" d="M520.1,49.6c0.9-0.2,1.8-0.4,2.7-0.6c-0.8-0.7-1.6-1-2.4-1c-0.8,0-1.6,0.3-2.5,1c-0.5,0.4-0.9,0.9-1.1,1.4
		C517.9,50.2,518.9,49.9,520.1,49.6C520,49.6,520.1,49.6,520.1,49.6z"/>
	<path class="st1" d="M541.7,48c0,0.4,0,0.7-0.1,1.1c2.3,0.3,4.7,0.6,7,1c0.2-0.7,0.3-1.4,0.3-2.2c-2.4-0.4-4.9-0.7-7.3-1
		C541.7,47.2,541.7,47.6,541.7,48z"/>
	<path class="st1" d="M526.8,40.4c1.3,0.5,2.7,0.9,4.3,1.2c5.5,0,11.1,0.7,16.7,1.5c-0.3-0.5-0.6-1.1-1.1-1.6
		C539.8,40.5,533.1,39.8,526.8,40.4z"/>
	<path class="st1" d="M539.5,51.7c-0.3,0.2-0.6,0.3-0.9,0.4c2.9,0.3,5.8,0.7,8.7,1.1c0.5-0.8,0.9-1.6,1.1-2.5
		c-2.4-0.4-4.7-0.7-7.1-1C541,50.5,540.3,51.1,539.5,51.7z"/>
	<path class="st1" d="M539.5,44.3c0.6,0.4,1.1,0.8,1.4,1.3c2.6,0.3,5.3,0.7,7.9,1.1c-0.1-0.7-0.2-1.3-0.4-1.9
		c-3.6-0.5-7.1-1-10.6-1.4C538.5,43.7,539,44,539.5,44.3z"/>
	<path class="st1" d="M522.4,38.3c0.3,0.2,0.7,0.4,1,0.6c6.6-1.1,13.5-0.6,20.3,0.3c-0.8-0.5-1.8-0.9-2.9-1.3
		C534.4,37.1,528.2,36.9,522.4,38.3z"/>
	<path class="st1" d="M523.5,49.6c-1.7,0.3-3.4,0.7-5,1.2c-0.1,0-0.3,0-0.4,0c-0.5,0.1-1.1,0.2-1.6,0.3c0,0.2-0.1,0.4-0.1,0.6
		c0,0.7,0.2,1.3,0.6,1.8c1-0.2,1.9-0.4,2.8-0.7h0.1c2.3-0.6,4.7-0.9,7.1-1.1C525.5,51.2,524.4,50.4,523.5,49.6z"/>
</g>
</svg>
