<svg id="Calque_1" data-name="Calque 1" xmlns="http://www.w3.org/2000/svg" viewBox="0 0 58.06 58.58"><defs><style>.cls-1{fill:#262626;}</style></defs><g id="Groupe_10" data-name="Groupe 10"><path id="Tracé_19" data-name="Tracé 19" class="cls-1" d="M30.69,55.76H27.38a3.58,3.58,0,0,0-.45-.09A25.75,25.75,0,0,1,17.33,53,26.34,26.34,0,0,1,2.76,26.16,25.51,25.51,0,0,1,13.3,8a26.47,26.47,0,0,1,41.8,16.7c.18,1,.27,1.94.4,2.91v3.31a2.57,2.57,0,0,0-.08.4,25.5,25.5,0,0,1-4.3,12.5A26.07,26.07,0,0,1,33.64,55.34C32.67,55.53,31.67,55.62,30.69,55.76ZM25,29.28V44.53h5V29.26h5l.79-5.05H30.06c0-1,0-1.91,0-2.82A2.08,2.08,0,0,1,31.9,19.1a2,2,0,0,1,.49,0c1.06,0,2.13,0,3.2,0,.18,0,.36,0,.53,0v-5l-.24,0c-1.84,0-3.68,0-5.53,0-2.81.07-4.57,1.47-5,4.24A48.34,48.34,0,0,0,25,23.55c0,.21,0,.42,0,.68H22v5.05Z"/></g></svg>