<svg id="Calque_1" data-name="Calque 1" xmlns="http://www.w3.org/2000/svg" viewBox="0 0 58.06 58.58"><defs><style>.cls-1{fill:#262626;}</style></defs><g id="Groupe_11" data-name="Groupe 11"><path id="Tracé_20" data-name="Tracé 20" class="cls-1" d="M29,56A26.72,26.72,0,1,1,55.76,29.29v0A26.8,26.8,0,0,1,29,56Zm15.2-26.69v-9a5.88,5.88,0,0,0-5.54-6.21H20a5.87,5.87,0,0,0-6.18,5.57c0,.19,0,.39,0,.58V38.34a5.89,5.89,0,0,0,5.6,6.15H38.11a5.88,5.88,0,0,0,6.12-5.63,4.69,4.69,0,0,0,0-.53v-9Z"/><path id="Tracé_21" data-name="Tracé 21" class="cls-1" d="M16.79,26.21h4.45c-1.28,4.43-.18,8,3.88,10.36A7.59,7.59,0,0,0,34,35.89c3.2-2.47,4-5.78,2.79-9.66h4.44c0,.22,0,.44,0,.66V38.25a3,3,0,0,1-2.62,3.28,3.86,3.86,0,0,1-.68,0H20.09a3,3,0,0,1-3.3-2.59,3.86,3.86,0,0,1,0-.68v-12Z"/><path id="Tracé_22" data-name="Tracé 22" class="cls-1" d="M29,34.65a5.36,5.36,0,1,1,5.35-5.37A5.41,5.41,0,0,1,29,34.65Z"/><path id="Tracé_23" data-name="Tracé 23" class="cls-1" d="M40.68,17.64v5.07h-5V17.64Z"/></g></svg>