<?xml version="1.0" encoding="utf-8"?>
<!-- Generator: Adobe Illustrator 22.1.0, SVG Export Plug-In . SVG Version: 6.00 Build 0)  -->
<svg version="1.1" id="Layer_1" xmlns="http://www.w3.org/2000/svg" xmlns:xlink="http://www.w3.org/1999/xlink" x="0px" y="0px"
	 viewBox="0 0 51 48" style="enable-background:new 0 0 51 48;" xml:space="preserve">
<style type="text/css">
	.st0{fill:#2D2A2B;}
	.st1{fill:#FFFFFF;}
</style>
<g>
	<rect y="0" class="st0" width="51" height="48"/>
</g>
<path class="st1" d="M25.2,10.2c0.5,0,1.1-0.3,1.1-1.5c0-1.2-0.7-1.4-1.3-1.4c-0.3,0-0.6,0.2-0.8,0.5c-0.3,0.3-0.4,0.6-0.4,0.9
	c0,0.4,0.1,0.8,0.4,1.1C24.5,10.1,24.8,10.2,25.2,10.2"/>
<path class="st1" d="M17.7,32.6c0.8-0.4,1.5-0.7,2.1-1c0.5-0.2,1-0.4,1.3-0.5l0.1,6.7v0.1c0,1.3-0.4,2.3-1.1,3.1
	c-0.7,0.8-1.7,1.2-2.9,1.2c-1.2,0-2.4-0.4-3.6-1.1c-1.3-0.8-1.9-1.8-1.9-2.9C11.8,36.6,13.7,34.6,17.7,32.6 M33.2,22.2
	c0,2.4-0.3,4.9-0.9,7.4c-0.6,2.2-1,2.4-1.1,2.4c-0.1,0-0.2,0-0.4-0.4l0,0c-0.2-0.5-0.6-1-1-1.4c0-1.3,0.4-3.4,1.1-6.3
	c0.4-1.7,0.8-2.9,1.1-3.7c0.4-1,0.7-1.1,0.8-1.1c0,0,0.1,0.1,0.2,0.8C33.2,20.4,33.2,21.2,33.2,22.2 M32.6,16.6
	c-0.9,0-1.7,0.6-2.3,1.8c0.1-1,0.3-2.1,0.4-3.4c0.3-1.9,0.6-4.1,1-6.5c0.1-0.3,0.1-0.7,0.2-1.2c0-0.2,0.1-0.4,0.1-0.7l0.2-0.8
	c0.2-0.8,0.3-1.4,0.3-1.8c0-1.5-0.9-1.8-1.7-1.8h-0.2c-0.7,0-1.2,0.3-1.5,1l0,0.1l0.1,0.1c0,0,0,0.2,0,0.5c0,0.2,0,0.4,0,0.6
	c0,0.2,0,0.5-0.1,0.7l-1.2,10c-0.5,4.3-0.8,8.6-0.8,13c-0.4-0.1-0.7-0.1-1.1-0.1l-1.5,0.1c-0.1,0-0.2,0-0.4,0c-0.1,0-0.3,0-0.5,0
	c0-0.1,0-0.3,0-0.6v-1.3c0-1.2,0-2.3,0.1-3.5c0-1.1,0.1-2.3,0.3-3.4c0.3-2.9,0.7-5.1,1.3-6.4l0,0v0c0-0.6-0.3-1.4-1.6-1.4
	c-0.5,0-1.3,0.2-2.4,0.5l-0.2,0.1l0.3,0.9c0,0.1,0,0.3,0.1,0.5v0.1c0,0.5,0,1.3-0.1,2.2c-0.1,0.9-0.2,2.1-0.3,3.4
	c-0.2,2.2-0.2,4.1-0.1,5.7l0.1,3.4c-4.8,1.3-8.1,3-9.8,5.2l0,0c-0.3,0.3-0.5,0.6-0.7,0.9c-0.2,0.3-0.4,0.5-0.5,0.7l0,0
	c-0.6,0.8-0.8,1.6-0.8,2.5c0,2,1,3.7,2.9,5.1c1.7,1.2,3.5,1.8,5.6,1.8c1.9,0,3.4-0.8,4.7-2.3c1.2-1.5,1.8-3.1,1.7-4.8l-0.3-7.1h0.1
	l0,0l0.2,0l0,0c0.8-0.1,1.1-0.1,1.2-0.1c0.7,0,1.3,0.1,1.7,0.4v0L27,31.3v0c0,0.5,0.2,1,0.5,1.5c0.3,0.5,0.7,0.7,1.1,0.7
	c0.3,0,0.5-0.1,0.8-0.4c0.6,1.1,1.3,1.7,2.1,1.7c1.6,0,2.8-2,3.6-6c0.3-1.4,0.5-2.7,0.6-3.9c0.1-1.2,0.2-2.4,0.2-3.5
	C35.8,18.2,34.7,16.6,32.6,16.6"/>
<path class="st1" d="M40.5,24.7c-0.4,0-0.8,0.2-1.1,0.6c-0.3,0.4-0.5,0.8-0.5,1.2c0,0.7,0.3,1.5,1.6,1.5c0.7,0,1.6-0.3,1.6-1.8
	C42.1,25.4,41.8,24.7,40.5,24.7"/>
</svg>
